<svg width="122" height="28" viewBox="0 0 122 28" fill="none" xmlns="http://www.w3.org/2000/svg">
<g clip-path="url(#clip0_1_6807)">
<path d="M54.8166 7.58962L50.5908 13.6716C50.2854 14.1093 50.1774 14.6227 50.2719 14.928C50.5097 15.6873 50.861 16.5438 50.861 16.5438C50.861 16.5438 51.785 16.5762 52.5794 16.533C52.9009 16.5168 53.3413 16.2358 53.6466 15.7981L59.3531 7.58691H54.8166V7.58962Z" fill="#FAFAFF"/>
<path d="M44.0682 7.58984L48.2968 13.6719C48.6021 14.1096 48.7101 14.6229 48.6156 14.9283C48.3805 15.6875 48.0266 16.544 48.0266 16.544C48.0266 16.544 47.1025 16.5764 46.3081 16.5332C45.9866 16.517 45.5462 16.236 45.2409 15.7983L39.5344 7.58984H44.0709H44.0682Z" fill="#FAFAFF"/>
<path d="M34.4819 4.47978C32.7689 1.46714 29.8265 0 25.4899 0C21.6451 0 18.9324 1.10509 17.1788 3.3801C15.4496 5.6227 14.3364 9.09737 14.3364 13.9986C14.3364 18.8999 15.4604 22.3746 17.1842 24.6172C18.9324 26.8922 21.6451 28 25.4899 28C29.3347 28 32.115 26.8463 33.874 24.4578C35.5275 22.2179 36.5786 18.8945 36.5786 13.9959C36.5786 11.0509 36.0923 7.30869 34.4819 4.47708M25.4872 3.45035C30.1669 3.45035 32.8418 5.24713 32.8418 13.9932C32.8418 22.7394 30.1723 24.4821 25.4872 24.4821C20.8021 24.4821 18.0623 22.7394 18.0623 13.9932C18.0623 5.24713 20.7616 3.45035 25.4872 3.45035ZM0 5.3417L2.49387 8.08144L2.78568 7.87069C3.08019 7.67075 4.9175 6.26846 5.93072 5.50111V27.5785H9.65396V0.510663H6.44408L0 5.3417Z" fill="#FAFAFF"/>
<path d="M55.2382 27.5597L50.599 20.8724C50.2964 20.4347 50.1856 19.9214 50.2801 19.616C50.5179 18.8568 50.8692 18.003 50.8692 18.003C50.8692 18.003 51.7932 17.9706 52.5876 18.0111C52.9091 18.03 53.3495 18.3083 53.6548 18.746L59.7774 27.5597H55.2355H55.2382Z" fill="#FAFAFF"/>
<path d="M43.6171 27.5975L48.2968 20.8724C48.6021 20.4347 48.7102 19.9214 48.6156 19.616C48.3779 18.8568 48.0266 18.003 48.0266 18.003C48.0266 18.003 47.1026 17.9706 46.3082 18.0111C45.9867 18.03 45.5462 18.3083 45.2409 18.746L39.0833 27.6002H43.6198L43.6171 27.5975Z" fill="#FAFAFF"/>
<path d="M72.6358 17.695H75.7647V16.5764H72.6358V14.7121H76.2969V13.5854H71.4011V20.8806H76.3267V19.7539H72.6358V17.6923V17.695ZM83.1004 18.6515L79.8662 13.5881H78.7017V20.8833H79.8878V15.7713L83.1409 20.8833H84.2973V13.5881H83.1004V18.6515ZM89.7012 13.4692C88.2854 13.4692 86.8506 14.3906 86.8506 16.1522V18.4948C86.8506 20.2321 88.2989 21.013 89.7309 21.013C91.1629 21.013 92.5706 20.0862 92.5706 18.3192V16.0712C92.5706 14.5446 91.3926 13.4719 89.7012 13.4719V13.4692ZM88.0854 16.1225C88.0854 15.0688 88.8879 14.5959 89.6823 14.5959C90.6928 14.5959 91.3466 15.1579 91.3466 16.0334V18.3759C91.3466 19.4108 90.5361 19.8755 89.7309 19.8755C88.7474 19.8755 88.0854 19.2892 88.0854 18.4165V16.1252V16.1225ZM98.5148 17.7653L96.5262 13.5989H95.1239V20.886H96.3209V15.9901L98.0285 19.5405H98.9661L100.663 15.9955V20.8887H101.868V13.6016H100.455L98.5148 17.768V17.7653ZM111.579 13.4692C109.901 13.4692 108.728 14.5608 108.728 16.1225V18.4948C108.728 19.9998 109.885 21.013 111.608 21.013C113.202 21.013 114.278 20.0835 114.278 18.7029V18.3219H113.092V18.584C113.092 19.3675 112.511 19.8755 111.614 19.8755C110.63 19.8755 109.968 19.2892 109.968 18.4165V16.0955C109.968 15.0607 110.771 14.5986 111.562 14.5986C112.265 14.5986 113.089 14.9364 113.089 15.8902V16.2225H114.267V15.7821C114.267 14.423 113.162 13.4719 111.576 13.4719L111.579 13.4692ZM119.868 16.7791L118.579 16.4251C117.663 16.1685 117.558 15.7659 117.558 15.4822C117.558 14.7986 118.212 14.5554 118.768 14.5554C119.482 14.5554 119.979 14.8364 120.252 15.3849L120.306 15.4984L121.381 15.0688L121.335 14.9445C120.998 14.0069 120.071 13.4692 118.787 13.4692C117.347 13.4692 116.339 14.3284 116.339 15.5632C116.339 16.5954 116.861 17.2033 118.025 17.5302L119.301 17.8734C119.973 18.0733 120.246 18.3651 120.246 18.8731C120.246 19.6242 119.471 19.889 118.809 19.889C117.966 19.889 117.331 19.4864 117.077 18.7866L117.031 18.6569L115.907 19.0784L115.942 19.2C116.275 20.324 117.331 20.9995 118.768 20.9995C120.354 20.9995 121.462 20.0889 121.462 18.7866C121.473 17.7329 120.933 17.0547 119.868 16.7764V16.7791ZM104.94 13.5962H106.175V20.8833H104.94V13.5962ZM65.6 18.1463H67.4887V18.5894C67.4887 19.5351 66.6808 19.8701 65.9918 19.8701C65.0083 19.8701 64.3463 19.2838 64.3463 18.4111V16.0901C64.3463 15.0553 65.1488 14.5932 65.9432 14.5932C66.6808 14.5932 67.4698 14.9175 67.4698 15.8253V16.1495H68.6586V15.7172C68.6586 14.1636 67.2996 13.4692 65.954 13.4692C64.2815 13.4692 63.1116 14.5608 63.1116 16.1225V18.4948C63.1116 19.9998 64.2707 21.013 65.9918 21.013C67.5968 21.013 68.6748 20.0835 68.6748 18.7029V17.0088H65.6V18.149V18.1463Z" fill="#FAFAFF"/>
</g>
<defs>
<clipPath id="clip0_1_6807">
<rect width="121.465" height="28" fill="white"/>
</clipPath>
</defs>
</svg>
