<svg width="54" height="32" viewBox="0 0 54 32" fill="none" xmlns="http://www.w3.org/2000/svg">
<g clip-path="url(#clip0_1_6803)">
<path d="M15.0731 11.6221C15.0731 12.2805 15.1443 12.8144 15.2688 13.2059C15.4112 13.5974 15.5892 14.0245 15.8383 14.4872C15.9273 14.6295 15.9629 14.7719 15.9629 14.8965C15.9629 15.0744 15.8561 15.2524 15.6248 15.4303L14.5036 16.1778C14.3435 16.2845 14.1833 16.3379 14.0409 16.3379C13.863 16.3379 13.685 16.249 13.5071 16.0888C13.2579 15.8219 13.0444 15.5371 12.8664 15.2524C12.6885 14.9499 12.5105 14.6117 12.3148 14.2024C10.9267 15.8397 9.18271 16.6583 7.08281 16.6583C5.58797 16.6583 4.39566 16.2312 3.52367 15.377C2.65168 14.5228 2.20679 13.3838 2.20679 11.9602C2.20679 10.4475 2.74066 9.21964 3.8262 8.29427C4.91174 7.36889 6.35319 6.9062 8.18615 6.9062C8.7912 6.9062 9.41405 6.95959 10.0725 7.04857C10.7309 7.13755 11.4072 7.27991 12.119 7.44007V6.14099C12.119 4.78851 11.8343 3.84534 11.2826 3.29367C10.7131 2.742 9.75217 2.47507 8.3819 2.47507C7.75905 2.47507 7.1184 2.54625 6.45996 2.70641C5.80152 2.86657 5.16088 3.06233 4.53803 3.31147C4.25329 3.43604 4.03975 3.50722 3.91518 3.54281C3.79061 3.5784 3.70163 3.5962 3.63044 3.5962C3.3813 3.5962 3.25673 3.41824 3.25673 3.04453V2.17254C3.25673 1.88781 3.29233 1.67426 3.3813 1.54969C3.47028 1.42512 3.63044 1.30055 3.87958 1.17598C4.50243 0.855659 5.24985 0.588723 6.12184 0.375175C6.99383 0.143831 7.91921 0.0370563 8.89797 0.0370563C11.0157 0.0370563 12.5639 0.517541 13.5605 1.47851C14.5392 2.43948 15.0375 3.89873 15.0375 5.85625V11.6221H15.0731ZM7.84803 14.327C8.43529 14.327 9.04034 14.2202 9.68099 14.0067C10.3216 13.7931 10.8911 13.4016 11.3716 12.8678C11.6563 12.5296 11.8699 12.1559 11.9766 11.7288C12.0834 11.3017 12.1546 10.7857 12.1546 10.1806V9.43319C11.6385 9.30862 11.0868 9.20185 10.5174 9.13067C9.94792 9.05948 9.39626 9.02389 8.84459 9.02389C7.65228 9.02389 6.78028 9.25524 6.19303 9.73572C5.60577 10.2162 5.32104 10.8924 5.32104 11.7822C5.32104 12.6186 5.53458 13.2415 5.97948 13.6686C6.40657 14.1135 7.02942 14.327 7.84803 14.327ZM22.138 16.249C21.8177 16.249 21.6041 16.1956 21.4617 16.071C21.3194 15.9642 21.1948 15.7151 21.088 15.377L16.906 1.62087C16.7993 1.26496 16.7459 1.03362 16.7459 0.909046C16.7459 0.624315 16.8882 0.464153 17.173 0.464153H18.917C19.2551 0.464153 19.4864 0.517541 19.611 0.642111C19.7534 0.748885 19.8601 0.998025 19.9669 1.33614L22.9566 13.1169L25.7327 1.33614C25.8217 0.980229 25.9285 0.748885 26.0708 0.642111C26.2132 0.535336 26.4623 0.464153 26.7827 0.464153H28.2063C28.5444 0.464153 28.7758 0.517541 28.9182 0.642111C29.0605 0.748885 29.1851 0.998025 29.2563 1.33614L32.068 13.2593L35.1467 1.33614C35.2534 0.980229 35.378 0.748885 35.5026 0.642111C35.6449 0.535336 35.8763 0.464153 36.1966 0.464153H37.8516C38.1363 0.464153 38.2965 0.606519 38.2965 0.909046C38.2965 0.998025 38.2787 1.087 38.2609 1.19378C38.2431 1.30055 38.2075 1.44292 38.1363 1.63867L33.8476 15.3948C33.7408 15.7507 33.6162 15.982 33.4739 16.0888C33.3315 16.1956 33.1001 16.2667 32.7976 16.2667H31.2672C30.9291 16.2667 30.6977 16.2134 30.5554 16.0888C30.413 15.9642 30.2884 15.7329 30.2172 15.377L27.4589 3.89873L24.7184 15.3592C24.6294 15.7151 24.5226 15.9464 24.3802 16.071C24.2379 16.1956 23.9887 16.249 23.6684 16.249H22.138ZM45.0055 16.7294C44.0801 16.7294 43.1547 16.6227 42.2649 16.4091C41.3751 16.1956 40.6811 15.9642 40.2184 15.6973C39.9337 15.5371 39.7379 15.3592 39.6668 15.199C39.5956 15.0388 39.56 14.8609 39.56 14.7007V13.7931C39.56 13.4194 39.7024 13.2415 39.9693 13.2415C40.0761 13.2415 40.1828 13.2593 40.2896 13.2949C40.3964 13.3305 40.5565 13.4016 40.7345 13.4728C41.3396 13.7398 41.998 13.9533 42.692 14.0957C43.4039 14.238 44.0979 14.3092 44.8097 14.3092C45.9309 14.3092 46.8028 14.1135 47.4079 13.722C48.013 13.3305 48.3333 12.761 48.3333 12.0314C48.3333 11.5331 48.1731 11.1238 47.8528 10.7857C47.5325 10.4475 46.9274 10.145 46.0554 9.86029L43.475 9.05948C42.176 8.65018 41.215 8.04513 40.6277 7.24432C40.0405 6.46131 39.7379 5.58932 39.7379 4.66394C39.7379 3.91652 39.8981 3.25808 40.2184 2.68862C40.5387 2.11915 40.9658 1.62087 41.4997 1.22937C42.0336 0.820068 42.6386 0.517541 43.3505 0.303992C44.0623 0.0904434 44.8097 0.00146484 45.5927 0.00146484C45.9842 0.00146484 46.3935 0.0192606 46.785 0.0726477C47.1943 0.126035 47.5681 0.197218 47.9418 0.268401C48.2977 0.357379 48.6358 0.446358 48.9561 0.553132C49.2764 0.659906 49.5256 0.766681 49.7035 0.873455C49.9527 1.01582 50.1306 1.15819 50.2374 1.31835C50.3442 1.46071 50.3976 1.65647 50.3976 1.90561V2.742C50.3976 3.11571 50.2552 3.31147 49.9883 3.31147C49.8459 3.31147 49.6146 3.24028 49.312 3.09792C48.2977 2.63523 47.1588 2.40389 45.8953 2.40389C44.8809 2.40389 44.0801 2.56405 43.5284 2.90217C42.9768 3.24028 42.692 3.75636 42.692 4.48598C42.692 4.98426 42.87 5.41136 43.2259 5.74948C43.5818 6.0876 44.2403 6.42572 45.1834 6.72824L47.7104 7.52905C48.9917 7.93835 49.9171 8.50782 50.4688 9.23744C51.0204 9.96706 51.2874 10.8035 51.2874 11.7288C51.2874 12.4941 51.1272 13.1881 50.8247 13.7931C50.5044 14.3982 50.0773 14.9321 49.5256 15.3592C48.9739 15.8041 48.3155 16.1244 47.5503 16.3557C46.7495 16.6049 45.9131 16.7294 45.0055 16.7294Z" fill="#FAFAFF"/>
<path d="M48.3688 25.3784C42.514 29.7028 34.0077 31.9984 26.6937 31.9984C16.4433 31.9984 7.20735 28.2079 0.231427 21.9082C-0.32024 21.41 0.17804 20.7337 0.836481 21.1252C8.38186 25.503 17.689 28.1545 27.3165 28.1545C33.8119 28.1545 40.948 26.8021 47.5146 24.0259C48.4934 23.581 49.3298 24.6666 48.3688 25.3784Z" fill="#FAFAFF"/>
<path d="M50.8069 22.6022C50.0594 21.6412 45.8597 22.1395 43.9555 22.3708C43.3861 22.442 43.2971 21.9437 43.8132 21.57C47.1587 19.221 52.6576 19.8972 53.2983 20.6802C53.9389 21.481 53.1203 26.9799 49.9883 29.6137C49.5078 30.023 49.0451 29.8094 49.2586 29.2756C49.9705 27.5138 51.5543 23.5453 50.8069 22.6022Z" fill="#FAFAFF"/>
</g>
<defs>
<clipPath id="clip0_1_6803">
<rect width="53.5117" height="32" fill="white"/>
</clipPath>
</defs>
</svg>
