<svg width="18" height="18" viewBox="0 0 18 18" fill="none" xmlns="http://www.w3.org/2000/svg">
<path fill-rule="evenodd" clip-rule="evenodd" d="M13.3789 1.5H4.62109C4.22574 1.49999 3.88465 1.49998 3.60373 1.52293C3.30722 1.54715 3.01231 1.60064 2.72852 1.74524C2.30516 1.96095 1.96095 2.30516 1.74524 2.72852C1.60064 3.01231 1.54715 3.30722 1.52293 3.60373C1.49998 3.88465 1.49999 4.22572 1.5 4.62106V13.3789C1.49999 13.7743 1.49998 14.1154 1.52293 14.3963C1.54715 14.6928 1.60064 14.9877 1.74524 15.2715C1.96095 15.6948 2.30516 16.0391 2.72852 16.2548C3.01231 16.3994 3.30722 16.4528 3.60373 16.4771C3.88466 16.5 4.22572 16.5 4.62108 16.5H13.3789C13.7743 16.5 14.1153 16.5 14.3963 16.4771C14.6928 16.4528 14.9877 16.3994 15.2715 16.2548C15.6948 16.0391 16.0391 15.6948 16.2548 15.2715C16.3994 14.9877 16.4528 14.6928 16.4771 14.3963C16.5 14.1153 16.5 13.7743 16.5 13.3789V4.62108C16.5 4.22572 16.5 3.88466 16.4771 3.60373C16.4528 3.30722 16.3994 3.01231 16.2548 2.72852C16.0391 2.30516 15.6948 1.96095 15.2715 1.74524C14.9877 1.60064 14.6928 1.54715 14.3963 1.52293C14.1154 1.49998 13.7743 1.49999 13.3789 1.5ZM12.75 5.25C12.75 4.83579 12.4142 4.5 12 4.5C11.5858 4.5 11.25 4.83579 11.25 5.25V12.75C11.25 13.1642 11.5858 13.5 12 13.5C12.4142 13.5 12.75 13.1642 12.75 12.75V5.25ZM9 7.5C9.41421 7.5 9.75 7.83579 9.75 8.25V12.75C9.75 13.1642 9.41421 13.5 9 13.5C8.58579 13.5 8.25 13.1642 8.25 12.75V8.25C8.25 7.83579 8.58579 7.5 9 7.5ZM6 10.5C6.41421 10.5 6.75 10.8358 6.75 11.25V12.75C6.75 13.1642 6.41421 13.5 6 13.5C5.58579 13.5 5.25 13.1642 5.25 12.75V11.25C5.25 10.8358 5.58579 10.5 6 10.5Z" fill="#FF7F3E"/>
</svg>
