<svg width="18" height="18" viewBox="0 0 18 18" fill="none" xmlns="http://www.w3.org/2000/svg">
<path fill-rule="evenodd" clip-rule="evenodd" d="M2.28326 14.4389C2.3177 14.8604 2.39162 15.248 2.57709 15.612C2.86471 16.1765 3.32365 16.6354 3.88814 16.923C4.25214 17.1085 4.63967 17.1824 5.06124 17.2169C5.46713 17.25 5.9654 17.25 6.56912 17.25H12.629C13.0244 17.25 13.3655 17.25 13.6464 17.2271C13.9429 17.2028 14.2378 17.1494 14.5216 17.0048C14.945 16.789 15.2892 16.4448 15.5049 16.0215C15.6495 15.7377 15.703 15.4428 15.7272 15.1463C15.7478 14.8944 15.7501 14.5944 15.7501 14.25C15.7501 10.7904 15.7501 7.33072 15.7501 3.87108C15.7501 3.47572 15.7501 3.13466 15.7272 2.85373C15.703 2.55722 15.6495 2.26231 15.5049 1.97852C15.2892 1.55516 14.945 1.21095 14.5216 0.995237C14.2378 0.850642 13.9429 0.797155 13.6464 0.772929C13.3655 0.749977 13.0244 0.749988 12.6291 0.750001H6.56914C5.96543 0.749992 5.46713 0.749985 5.06124 0.783147C4.63967 0.817591 4.25214 0.891514 3.88814 1.07698C3.32365 1.3646 2.86471 1.82354 2.57709 2.38803C2.39162 2.75203 2.3177 3.13956 2.28326 3.56113C2.25009 3.96703 2.2501 4.46529 2.25011 5.06901V12.931C2.2501 13.4342 2.2423 13.9376 2.28326 14.4389ZM14.2322 15.0241C14.2155 15.2279 14.1873 15.3034 14.1684 15.3405C14.0965 15.4816 13.9817 15.5964 13.8406 15.6683C13.8035 15.6871 13.728 15.7154 13.5242 15.7321C13.3117 15.7494 13.0325 15.75 12.6001 15.75H6.60011C5.95768 15.75 5.52096 15.7494 5.18339 15.7218C4.85458 15.695 4.68642 15.6463 4.56913 15.5865C4.28688 15.4427 4.05741 15.2132 3.9136 14.931C3.77922 14.6672 3.71277 14.4389 3.7627 14.0547C3.8584 13.3186 4.48786 12.75 5.25011 12.75H14.2501C14.2501 13.5038 14.2936 14.2722 14.2322 15.0241Z" fill="#FF7F3E"/>
</svg>
