<svg width="18" height="18" viewBox="0 0 18 18" fill="none" xmlns="http://www.w3.org/2000/svg">
<path fill-rule="evenodd" clip-rule="evenodd" d="M11.3506 1.61573C9.9961 0.461424 8.0039 0.461424 6.64939 1.61573C6.3092 1.90564 5.88622 2.08084 5.44067 2.1164C3.66667 2.25796 2.25796 3.66667 2.1164 5.44067C2.08084 5.88622 1.90564 6.3092 1.61573 6.64939C0.461424 8.0039 0.461424 9.9961 1.61573 11.3506C1.90564 11.6908 2.08084 12.1138 2.1164 12.5593C2.25796 14.3333 3.66667 15.742 5.44067 15.8836C5.88622 15.9192 6.3092 16.0944 6.64939 16.3843C8.0039 17.5386 9.9961 17.5386 11.3506 16.3843C11.6908 16.0944 12.1138 15.9192 12.5593 15.8836C14.3333 15.742 15.742 14.3333 15.8836 12.5593C15.9192 12.1138 16.0944 11.6908 16.3843 11.3506C17.5386 9.9961 17.5386 8.0039 16.3843 6.64939C16.0944 6.3092 15.9192 5.88622 15.8836 5.44067C15.742 3.66667 14.3333 2.25796 12.5593 2.1164C12.1138 2.08084 11.6908 1.90564 11.3506 1.61573ZM12.1553 7.65533C12.4482 7.36244 12.4482 6.88756 12.1553 6.59467C11.8624 6.30178 11.3876 6.30178 11.0947 6.59467L8.25 9.43934L7.28033 8.46967C6.98744 8.17678 6.51256 8.17678 6.21967 8.46967C5.92678 8.76256 5.92678 9.23744 6.21967 9.53033L7.71967 11.0303C8.01256 11.3232 8.48744 11.3232 8.78033 11.0303L12.1553 7.65533Z" fill="#6852D6"/>
</svg>
