<svg width="62" height="32" viewBox="0 0 62 32" fill="none" xmlns="http://www.w3.org/2000/svg">
<path d="M20.5947 31.8123H17.9326V21.2627H20.5947V31.8123Z" fill="#FAFAFF"/>
<path d="M42.0598 24.2853C41.9502 24.2297 41.0935 23.7221 39.8202 23.7221C38.0992 23.7221 36.9052 24.9194 36.9052 26.5359C36.9052 28.1035 38.0478 29.3523 39.8202 29.3523C41.0716 29.3523 41.9426 28.8548 42.0598 28.7924V31.6239C41.7259 31.7167 40.8161 31.9992 39.6339 31.9992C36.6396 31.9992 34.0112 29.935 34.0112 26.5351C34.0112 23.3856 36.3891 21.0752 39.6339 21.0752C40.8818 21.0752 41.8077 21.3788 42.0598 21.4538V24.2853ZM14.273 24.2853C14.1659 24.2297 13.31 23.7221 12.0368 23.7221C10.3124 23.7221 9.11921 24.9194 9.11921 26.5359C9.11921 28.1035 10.2626 29.3523 12.0368 29.3523C13.2881 29.3523 14.1583 28.8548 14.273 28.7924V31.6239C13.9425 31.7167 13.0335 31.9992 11.8445 31.9992C8.85275 31.9992 6.22778 29.935 6.22778 26.5351C6.22778 23.3856 8.60568 21.0752 11.8454 21.0752C13.0984 21.0752 14.0226 21.3788 14.273 21.4538V24.2853ZM50.4339 23.7617C48.8545 23.7617 47.6816 25.0046 47.6816 26.5359C47.6816 28.0706 48.8545 29.3127 50.4339 29.3127C52.0116 29.3127 53.1879 28.0706 53.1879 26.5359C53.1879 25.0046 52.0116 23.7617 50.4339 23.7617ZM56.0085 26.5359C56.0085 29.5538 53.6786 31.9992 50.4347 31.9992C47.1892 31.9992 44.8627 29.5538 44.8627 26.5351C44.8627 23.5231 47.19 21.0752 50.4339 21.0752C53.6786 21.0752 56.0085 23.5231 56.0085 26.5359ZM30.6898 23.6605C30.6501 23.6479 29.5295 23.3384 28.6087 23.3384C27.542 23.3384 26.9619 23.696 26.9619 24.2027C26.9619 24.8453 27.7444 25.0695 28.182 25.2078L28.9165 25.4414C30.6451 25.9912 31.4318 27.1742 31.4318 28.4593C31.4318 31.1096 29.1011 32 27.0639 32C25.6481 32 24.3217 31.7386 24.191 31.7116V29.2831C24.4254 29.3422 25.5419 29.6761 26.7047 29.6761C28.0294 29.6761 28.6382 29.2882 28.6382 28.6912C28.6382 28.1566 28.1112 27.848 27.4509 27.6405C27.2907 27.5866 27.0479 27.5107 26.8826 27.4567C25.4002 26.9879 24.164 26.116 24.164 24.3705C24.164 22.3974 25.6414 21.0726 28.0952 21.0726C29.3912 21.0726 30.6105 21.3872 30.6898 21.4083V23.6597V23.6605Z" fill="#FAFAFF"/>
<path d="M3.40475 9.92523C3.40475 9.19837 2.81111 8.60892 2.08341 8.60892C1.35571 8.60892 0.76123 9.19834 0.76123 9.92435V12.6944C0.769939 13.0392 0.913019 13.3669 1.15995 13.6077C1.40688 13.8484 1.73811 13.9832 2.08299 13.9832C2.42787 13.9832 2.7591 13.8484 3.00603 13.6077C3.25296 13.3669 3.39604 13.0392 3.40475 12.6944V9.92523ZM10.6641 6.29093C10.6641 5.94038 10.5248 5.60417 10.2769 5.3563C10.0291 5.10842 9.69288 4.96917 9.34232 4.96917C8.99177 4.96917 8.65558 5.10842 8.4077 5.3563C8.15982 5.60417 8.02056 5.94038 8.02056 6.29093V12.6944C8.02056 13.0449 8.15982 13.3811 8.4077 13.629C8.65558 13.8769 8.99177 14.0161 9.34232 14.0161C9.69288 14.0161 10.0291 13.8769 10.2769 13.629C10.5248 13.3811 10.6641 13.0449 10.6641 12.6944V6.29005V6.29093ZM17.9243 1.31757C17.9243 0.590712 17.3306 0.000444412 16.6029 0.000444412C15.8744 0.000444412 15.2807 0.590712 15.2807 1.31757V15.3261C15.2894 15.6708 15.4325 15.9986 15.6795 16.2393C15.9264 16.4801 16.2576 16.6149 16.6025 16.6149C16.9474 16.6149 17.2786 16.4801 17.5255 16.2393C17.7725 15.9986 17.9155 15.6708 17.9243 15.3261V1.31757ZM25.1836 6.29093C25.1836 5.94038 25.0443 5.60417 24.7964 5.3563C24.5486 5.10842 24.2124 4.96917 23.8618 4.96917C23.5113 4.96917 23.1751 5.10842 22.9272 5.3563C22.6793 5.60417 22.5401 5.94038 22.5401 6.29093V12.6944C22.5401 13.0449 22.6793 13.3811 22.9272 13.629C23.1751 13.8769 23.5113 14.0161 23.8618 14.0161C24.2124 14.0161 24.5486 13.8769 24.7964 13.629C25.0443 13.3811 25.1836 13.0449 25.1836 12.6944V6.29005V6.29093ZM32.4353 9.92523C32.4356 9.5765 32.2973 9.24195 32.0509 8.99513C31.8046 8.7483 31.4703 8.60937 31.1216 8.60892C30.7721 8.6087 30.4368 8.74706 30.1891 8.99364C29.9414 9.24021 29.8016 9.57487 29.8002 9.92435V12.6944C29.8002 13.0438 29.9391 13.3789 30.1861 13.626C30.4332 13.8731 30.7684 14.0119 31.1178 14.0119C31.4672 14.0119 31.8023 13.8731 32.0494 13.626C32.2965 13.3789 32.4353 13.0438 32.4353 12.6944V9.92523ZM39.698 6.29093C39.6893 5.94726 39.5467 5.62058 39.3006 5.38059C39.0544 5.1406 38.7243 5.00627 38.3805 5.00627C38.0367 5.00627 37.7065 5.1406 37.4604 5.38059C37.2143 5.62058 37.0717 5.94726 37.063 6.29093V12.6944C37.063 13.0438 37.2018 13.3789 37.4489 13.626C37.6959 13.8731 38.0311 14.0119 38.3805 14.0119C38.7299 14.0119 39.065 13.8731 39.3121 13.626C39.5592 13.3789 39.698 13.0438 39.698 12.6944V6.29005V6.29093ZM46.9624 1.31757C46.9624 0.96814 46.8236 0.633015 46.5765 0.385927C46.3294 0.13884 45.9943 3.24249e-05 45.6449 3.24249e-05C45.2954 3.24249e-05 44.9603 0.13884 44.7132 0.385927C44.4661 0.633015 44.3273 0.96814 44.3273 1.31757V15.3261C44.3195 15.5039 44.3479 15.6815 44.4105 15.8482C44.4732 16.0148 44.569 16.1671 44.6921 16.2957C44.8153 16.4243 44.9631 16.5267 45.1269 16.5966C45.2906 16.6665 45.4668 16.7026 45.6449 16.7026C45.8229 16.7026 45.9991 16.6665 46.1629 16.5966C46.3266 16.5267 46.4745 16.4243 46.5976 16.2957C46.7207 16.1671 46.8165 16.0148 46.8792 15.8482C46.9419 15.6815 46.9702 15.5039 46.9624 15.3261V1.31757ZM54.2251 6.29093C54.2251 5.56322 53.6357 4.9721 52.8911 4.9721C52.5417 4.97232 52.2067 5.11127 51.9597 5.35841C51.7128 5.60555 51.574 5.94065 51.574 6.29005V12.6944C51.574 13.4255 52.1643 14.0149 52.8911 14.0149C53.6357 14.0149 54.2251 13.4255 54.2251 12.6944V6.29005V6.29093ZM61.4743 9.92523C61.4743 9.57546 61.3354 9.23998 61.0881 8.99266C60.8408 8.74533 60.5053 8.6064 60.1555 8.6064C59.8058 8.6064 59.4703 8.74533 59.223 8.99266C58.9757 9.23998 58.8367 9.57546 58.8367 9.92523V12.6944C58.8367 13.4255 59.4278 14.0157 60.1555 14.0157C60.8824 14.0157 61.4735 13.4255 61.4735 12.6944V9.92523H61.4743Z" fill="#FAFAFF"/>
<path d="M59.9506 30.4223V30.5875H59.4801V31.811H59.2862V30.5884H58.814V30.4223H59.9506ZM60.0493 30.4223H60.352L60.7677 31.5615H60.7745L61.1767 30.4231H61.4735V31.811H61.2753V30.6727H61.2686L60.847 31.811H60.664L60.2525 30.6727H60.2432V31.811H60.0493V30.4223Z" fill="#FAFAFF"/>
</svg>
