<svg width="18" height="18" viewBox="0 0 18 18" fill="none" xmlns="http://www.w3.org/2000/svg">
<path fill-rule="evenodd" clip-rule="evenodd" d="M0.75 9C0.75 4.44365 4.44365 0.75 9 0.75C13.5563 0.75 17.25 4.44365 17.25 9C17.25 13.5563 13.5563 17.25 9 17.25C4.44365 17.25 0.75 13.5563 0.75 9ZM9.75 4.5C9.75 4.08579 9.41421 3.75 9 3.75C8.58579 3.75 8.25 4.08579 8.25 4.5V9C8.25 9.28408 8.4105 9.54378 8.66459 9.67082L11.6646 11.1708C12.0351 11.3561 12.4856 11.2059 12.6708 10.8354C12.8561 10.4649 12.7059 10.0144 12.3354 9.82918L9.75 8.53647V4.5Z" fill="#FF7F3E"/>
</svg>
