<svg width="18" height="18" viewBox="0 0 18 18" fill="currentColor" xmlns="http://www.w3.org/2000/svg">
<path fill-rule="evenodd" clip-rule="evenodd" d="M13.3789 1.5H4.62109C4.22574 1.49999 3.88465 1.49998 3.60373 1.52293C3.30722 1.54715 3.01231 1.60064 2.72852 1.74524C2.30516 1.96095 1.96095 2.30516 1.74524 2.72852C1.60064 3.01231 1.54715 3.30722 1.52293 3.60373C1.49998 3.88465 1.49999 4.22572 1.5 4.62106V13.3789C1.49999 13.7743 1.49998 14.1154 1.52293 14.3963C1.54715 14.6928 1.60064 14.9877 1.74524 15.2715C1.96095 15.6948 2.30516 16.0391 2.72852 16.2548C3.01231 16.3994 3.30722 16.4528 3.60373 16.4771C3.88466 16.5 4.22572 16.5 4.62108 16.5H13.3789C13.7743 16.5 14.1153 16.5 14.3963 16.4771C14.6928 16.4528 14.9877 16.3994 15.2715 16.2548C15.6948 16.0391 16.0391 15.6948 16.2548 15.2715C16.3994 14.9877 16.4528 14.6928 16.4771 14.3963C16.5 14.1153 16.5 13.7743 16.5 13.3789V4.62108C16.5 4.22572 16.5 3.88466 16.4771 3.60373C16.4528 3.30722 16.3994 3.01231 16.2548 2.72852C16.0391 2.30516 15.6948 1.96095 15.2715 1.74524C14.9877 1.60064 14.6928 1.54715 14.3963 1.52293C14.1154 1.49998 13.7743 1.49999 13.3789 1.5ZM8.03033 5.78033C8.32322 5.48744 8.32322 5.01256 8.03033 4.71967C7.73744 4.42678 7.26256 4.42678 6.96967 4.71967L4.71967 6.96967C4.42678 7.26256 4.42678 7.73744 4.71967 8.03033L6.96967 10.2803C7.26256 10.5732 7.73744 10.5732 8.03033 10.2803C8.32322 9.98744 8.32322 9.51256 8.03033 9.21967L6.31066 7.5L8.03033 5.78033ZM11.0303 7.71967C10.7374 7.42678 10.2626 7.42678 9.96967 7.71967C9.67678 8.01256 9.67678 8.48744 9.96967 8.78033L11.6893 10.5L9.96967 12.2197C9.67678 12.5126 9.67678 12.9874 9.96967 13.2803C10.2626 13.5732 10.7374 13.5732 11.0303 13.2803L13.2803 11.0303C13.5732 10.7374 13.5732 10.2626 13.2803 9.96967L11.0303 7.71967Z" />
</svg>
