<svg width="18" height="18" viewBox="0 0 18 18" fill="none" xmlns="http://www.w3.org/2000/svg">
<path d="M5.40202 5.40202C2.73739 6.01372 0.75 8.39977 0.75 11.25C0.75 14.5637 3.43629 17.25 6.75 17.25C9.60023 17.25 11.9863 15.2626 12.598 12.598C12.6974 12.1647 12.75 11.7135 12.75 11.25C12.75 7.93629 10.0637 5.25 6.75 5.25C6.28652 5.25 5.83532 5.30255 5.40202 5.40202Z" fill="#FF7F3E"/>
<path d="M6.03329 3.7838C6.26918 3.76144 6.50825 3.75 6.75 3.75C10.8921 3.75 14.25 7.10786 14.25 11.25C14.25 11.4917 14.2386 11.7308 14.2162 11.9667C16.0282 10.9342 17.25 8.98477 17.25 6.75C17.25 3.43629 14.5637 0.75 11.25 0.75C9.01523 0.75 7.06582 1.97177 6.03329 3.7838Z" fill="#FF7F3E"/>
</svg>
