<svg width="18" height="18" viewBox="0 0 18 18" fill="none" xmlns="http://www.w3.org/2000/svg">
<path d="M12.375 1.5C10.511 1.5 9 3.01104 9 4.875C9 6.73896 10.511 8.25 12.375 8.25C14.239 8.25 15.75 6.73896 15.75 4.875C15.75 3.01104 14.239 1.5 12.375 1.5Z" fill="#FF7F3E"/>
<path d="M9.02385 1.33444C8.08541 2.22299 7.5 3.48063 7.5 4.875C7.5 5.77282 7.74271 6.61395 8.16609 7.33637C7.83818 7.4426 7.48829 7.5 7.125 7.5C5.26104 7.5 3.75 5.98896 3.75 4.125C3.75 2.26104 5.26104 0.75 7.125 0.75C7.82912 0.75 8.48288 0.965624 9.02385 1.33444Z" fill="#FF7F3E"/>
<path d="M13.2817 11.92C13.2817 12.5135 12.8891 13.0154 12.348 13.1832L12.6959 13.167C13.0762 13.167 13.4459 13.0474 13.7497 12.8253L15.8714 11.2774C16.4009 10.8913 17.1421 10.9426 17.6102 11.3979C18.1301 11.9036 18.1301 12.7228 17.6102 13.2277L15.7897 14.9985C15.2997 15.4752 14.6745 15.8007 13.9948 15.9331L11.4217 16.4337C10.9115 16.5328 10.3855 16.5208 9.88054 16.3978L7.55339 15.8323C7.27501 15.764 6.98961 15.7298 6.70245 15.7298C6.39758 15.7298 6.24514 15.7298 6.12284 15.6861C5.911 15.6105 5.74429 15.4438 5.66866 15.232C5.625 15.1096 5.625 14.9572 5.625 14.6523V12.0805C5.625 11.8661 5.625 11.7589 5.65253 11.6602C5.67691 11.5727 5.71699 11.4903 5.7708 11.4171C5.83156 11.3345 5.91591 11.2684 6.08461 11.1361L6.9738 10.439C6.9738 10.439 8.44737 9.74999 9.26143 9.74999C9.59865 9.74999 9.93411 9.79103 10.2617 9.87224L12.2744 10.3726C12.8663 10.5193 13.2817 11.0485 13.2817 11.6554V11.92Z" fill="#FF7F3E"/>
<path fill-rule="evenodd" clip-rule="evenodd" d="M2.60515 9.74999C2.61176 9.74999 2.61838 9.74999 2.625 9.74999C2.63163 9.74999 2.63825 9.74999 2.64486 9.74999C2.80239 9.74998 2.95586 9.74996 3.08642 9.75887C3.2292 9.76861 3.3985 9.79147 3.57403 9.86417C3.94157 10.0164 4.23358 10.3084 4.38582 10.676C4.45853 10.8515 4.48138 11.0208 4.49113 11.1636C4.50003 11.2941 4.50002 11.4476 4.5 11.6051C4.5 11.6117 4.5 11.6184 4.5 11.625L4.5 15.3949C4.50002 15.5524 4.50003 15.7059 4.49113 15.8364C4.48138 15.9792 4.45853 16.1485 4.38582 16.324C4.23358 16.6916 3.94157 16.9836 3.57403 17.1358C3.3985 17.2085 3.2292 17.2314 3.08642 17.2411C2.95586 17.25 2.80239 17.25 2.64486 17.25H2.60514C2.44761 17.25 2.29414 17.25 2.16358 17.2411C2.0208 17.2314 1.85151 17.2085 1.67598 17.1358C1.30844 16.9836 1.01642 16.6916 0.864183 16.324C0.791475 16.1485 0.76862 15.9792 0.758878 15.8364C0.74997 15.7058 0.749986 15.5524 0.750001 15.3948L0.750003 11.625C0.750003 11.6184 0.750002 11.6117 0.750001 11.6051C0.749986 11.4476 0.74997 11.2941 0.758879 11.1636C0.76862 11.0208 0.791476 10.8515 0.864183 10.676C1.01642 10.3084 1.30844 10.0164 1.67598 9.86417C1.85151 9.79146 2.0208 9.76861 2.16358 9.75887C2.29415 9.74996 2.44762 9.74998 2.60515 9.74999Z" fill="#FF7F3E"/>
</svg>
