<svg width="16" height="16" viewBox="0 0 16 16" fill="none" xmlns="http://www.w3.org/2000/svg">
<g opacity="0.84">
<path fill-rule="evenodd" clip-rule="evenodd" d="M8.00544 1.33301C4.31589 1.33301 1.33325 4.38855 1.33325 8.16867C1.33325 11.1903 3.24433 13.7481 5.8955 14.6534C6.22697 14.7214 6.34838 14.5063 6.34838 14.3253C6.34838 14.1668 6.33746 13.6237 6.33746 13.0577C4.48142 13.4652 4.09491 12.2428 4.09491 12.2428C3.79664 11.4506 3.35468 11.247 3.35468 11.247C2.7472 10.8282 3.39893 10.8282 3.39893 10.8282C4.07279 10.8735 4.42638 11.5299 4.42638 11.5299C5.0228 12.571 5.98387 12.2769 6.37051 12.0957C6.42568 11.6544 6.60255 11.3488 6.79034 11.1791C5.31001 11.0206 3.75252 10.4321 3.75252 7.80645C3.75252 7.05951 4.01748 6.4484 4.4373 5.97313C4.37107 5.80341 4.13903 5.1016 4.50368 4.1623C4.50368 4.1623 5.06705 3.98119 6.33732 4.86397C6.88117 4.71434 7.44203 4.63822 8.00544 4.63758C8.5688 4.63758 9.1431 4.71688 9.67341 4.86397C10.9438 3.98119 11.5072 4.1623 11.5072 4.1623C11.8718 5.1016 11.6397 5.80341 11.5734 5.97313C12.0043 6.4484 12.2583 7.05951 12.2583 7.80645C12.2583 10.4321 10.7009 11.0092 9.20947 11.1791C9.45257 11.3941 9.66235 11.8014 9.66235 12.4466C9.66235 13.3632 9.65142 14.0989 9.65142 14.3252C9.65142 14.5063 9.77297 14.7214 10.1043 14.6535C12.7555 13.748 14.6666 11.1903 14.6666 8.16867C14.6775 4.38855 11.6839 1.33301 8.00544 1.33301Z" fill="#FAFAFF"/>
</g>
</svg>
