<svg width="16" height="16" viewBox="0 0 16 16" fill="none" xmlns="http://www.w3.org/2000/svg">
<g opacity="0.84">
<path d="M5.3495 1.64437C4.66853 1.6765 4.20351 1.78517 3.79698 1.94491C3.37624 2.10888 3.01963 2.32892 2.66482 2.68501C2.31 3.04111 2.0915 3.39798 1.92869 3.81935C1.77112 4.22678 1.66436 4.69219 1.63428 5.37353C1.6042 6.05488 1.59755 6.27389 1.60088 8.01188C1.6042 9.74987 1.61188 9.96773 1.64491 10.6505C1.67742 11.3313 1.78571 11.7962 1.94545 12.2029C2.10968 12.6236 2.32945 12.9801 2.68568 13.335C3.0419 13.69 3.39851 13.908 3.82092 14.071C4.22796 14.2283 4.69349 14.3356 5.37471 14.3654C6.05593 14.3953 6.2752 14.4022 8.01267 14.3988C9.75015 14.3955 9.9689 14.3878 10.6515 14.3555C11.3342 14.3231 11.7966 14.214 12.2034 14.055C12.6241 13.8904 12.9809 13.671 13.3356 13.3147C13.6903 12.9583 13.9086 12.6012 14.0713 12.1796C14.229 11.7725 14.3362 11.307 14.3657 10.6263C14.3955 9.94315 14.4026 9.72504 14.3993 7.9873C14.3959 6.24957 14.3881 6.03171 14.3557 5.34921C14.3234 4.66672 14.2149 4.20323 14.0553 3.79631C13.8908 3.37558 13.6713 3.01935 13.3152 2.66415C12.9591 2.30895 12.6017 2.09071 12.1802 1.9284C11.7729 1.77083 11.3077 1.66344 10.6264 1.634C9.94522 1.60456 9.72596 1.59701 7.98784 1.60034C6.24972 1.60367 6.03212 1.61109 5.3495 1.64437ZM5.42425 13.2141C4.80025 13.1869 4.46143 13.0833 4.23564 12.9965C3.93663 12.8813 3.72364 12.742 3.49861 12.5192C3.27359 12.2963 3.13535 12.0826 3.01861 11.7842C2.93093 11.5584 2.82533 11.22 2.79614 10.596C2.7644 9.92152 2.75774 9.71902 2.75403 8.01034C2.75032 6.30167 2.75685 6.09942 2.78642 5.42473C2.81304 4.80124 2.91736 4.46204 3.00402 4.23638C3.11922 3.93699 3.25797 3.72438 3.48133 3.49948C3.70469 3.27458 3.91781 3.13609 4.21644 3.01935C4.44197 2.93129 4.78041 2.82658 5.40415 2.79689C6.0791 2.76489 6.28134 2.75849 7.98976 2.75477C9.69818 2.75106 9.90094 2.75746 10.5761 2.78716C11.1996 2.81429 11.539 2.91759 11.7644 3.00476C12.0635 3.11996 12.2764 3.25833 12.5013 3.48207C12.7262 3.70582 12.8648 3.91817 12.9815 4.21743C13.0697 4.44233 13.1744 4.78064 13.2039 5.40477C13.236 6.07971 13.2433 6.28208 13.2464 7.99038C13.2494 9.69867 13.2434 9.90155 13.2138 10.576C13.1866 11.2 13.0832 11.5389 12.9962 11.765C12.881 12.0639 12.7422 12.277 12.5187 12.5018C12.2952 12.7265 12.0823 12.865 11.7836 12.9818C11.5583 13.0697 11.2195 13.1746 10.5962 13.2043C9.92129 13.2361 9.71905 13.2427 8.00999 13.2465C6.30092 13.2502 6.09932 13.2433 5.42438 13.2141M10.6417 4.57904C10.6419 4.73094 10.6872 4.87936 10.7718 5.00553C10.8564 5.13169 10.9766 5.22992 11.117 5.28781C11.2575 5.3457 11.4119 5.36063 11.5609 5.33073C11.7098 5.30083 11.8465 5.22743 11.9537 5.11982C12.0609 5.01221 12.1338 4.87522 12.1632 4.72617C12.1926 4.57713 12.1771 4.42273 12.1187 4.28249C12.0603 4.14226 11.9616 4.0225 11.8351 3.93835C11.7086 3.8542 11.56 3.80945 11.4081 3.80975C11.2045 3.81016 11.0094 3.89143 10.8656 4.03569C10.7219 4.17995 10.6413 4.37539 10.6417 4.57904ZM4.71397 8.00599C4.71756 9.82104 6.19161 11.2891 8.00627 11.2856C9.82094 11.2822 11.29 9.80824 11.2865 7.99319C11.2831 6.17815 9.80865 4.70972 7.99373 4.71331C6.17881 4.71689 4.71052 6.1912 4.71397 8.00599ZM5.86675 8.00369C5.86591 7.58175 5.99022 7.16903 6.22394 6.81774C6.45767 6.46644 6.79031 6.19234 7.17982 6.0301C7.56932 5.86786 7.99819 5.82476 8.41218 5.90626C8.82618 5.98775 9.20672 6.19019 9.50567 6.48795C9.80461 6.78572 10.0086 7.16545 10.0917 7.57912C10.1748 7.99279 10.1334 8.42183 9.97273 8.81197C9.81203 9.20212 9.53925 9.53585 9.18888 9.77096C8.83851 10.0061 8.4263 10.132 8.00435 10.1328C7.72418 10.1334 7.44664 10.0788 7.18758 9.97214C6.92852 9.86545 6.69301 9.70877 6.49451 9.51106C6.29601 9.31334 6.1384 9.07845 6.03069 8.81982C5.92297 8.56118 5.86727 8.28386 5.86675 8.00369Z" fill="#FAFAFF"/>
</g>
</svg>
