<svg width="1440" height="26" viewBox="0 0 1440 26" fill="none" xmlns="http://www.w3.org/2000/svg">
<path fill-rule="evenodd" clip-rule="evenodd" d="M77.4059 12.9821H80.5187C80.4008 11.8854 80.1178 10.9376 79.6697 10.1389C79.2217 9.34021 78.6498 8.67859 77.9542 8.15406C77.2585 7.62952 76.4568 7.24209 75.5489 6.99175C74.641 6.7414 73.6683 6.61623 72.6307 6.61623C71.1923 6.61623 69.9307 6.87253 68.8459 7.38514C67.7612 7.89776 66.8592 8.6011 66.14 9.49519C65.4208 10.3893 64.8843 11.4383 64.5306 12.6424C64.1769 13.8464 64 15.1398 64 16.5227C64 17.9056 64.1828 19.1751 64.5483 20.3315C64.9138 21.4879 65.4561 22.4833 66.1754 23.3177C66.8946 24.1522 67.7907 24.796 68.8636 25.249C69.9366 25.702 71.1687 25.9285 72.56 25.9285C74.8945 25.9285 76.7398 25.3086 78.0957 24.0688C79.4516 22.829 80.2946 21.0647 80.6248 18.7758H77.5474C77.3588 20.2063 76.8459 21.315 76.0087 22.1018C75.1716 22.8886 74.0102 23.282 72.5246 23.282C71.5814 23.282 70.7678 23.0912 70.084 22.7098C69.4001 22.3283 68.8459 21.8216 68.4215 21.1898C67.997 20.558 67.6846 19.8368 67.4841 19.0261C67.2837 18.2155 67.1835 17.381 67.1835 16.5227C67.1835 15.5928 67.2778 14.6928 67.4664 13.8226C67.6551 12.9523 67.9675 12.1834 68.4038 11.5158C68.8401 10.8482 69.4237 10.3118 70.1547 9.90646C70.8857 9.50114 71.7936 9.29849 72.8783 9.29849C74.1517 9.29849 75.1657 9.62035 75.9203 10.2641C76.6749 10.9078 77.1701 11.8138 77.4059 12.9821ZM85.6255 16.3081C85.6255 15.1875 85.7729 14.1921 86.0676 13.3219C86.3624 12.4516 86.7692 11.7185 87.2879 11.1224C87.8067 10.5264 88.4139 10.0734 89.1096 9.76341C89.8052 9.45346 90.5422 9.29849 91.3203 9.29849C92.0985 9.29849 92.8354 9.45346 93.5311 9.76341C94.2267 10.0734 94.8339 10.5264 95.3527 11.1224C95.8715 11.7185 96.2783 12.4516 96.5731 13.3219C96.8678 14.1921 97.0152 15.1875 97.0152 16.3081C97.0152 17.4287 96.8678 18.4241 96.5731 19.2944C96.2783 20.1646 95.8715 20.8918 95.3527 21.4759C94.8339 22.0601 94.2267 22.5071 93.5311 22.8171C92.8354 23.127 92.0985 23.282 91.3203 23.282C90.5422 23.282 89.8052 23.127 89.1096 22.8171C88.4139 22.5071 87.8067 22.0601 87.2879 21.4759C86.7692 20.8918 86.3624 20.1646 86.0676 19.2944C85.7729 18.4241 85.6255 17.4287 85.6255 16.3081ZM82.442 16.3081C82.442 17.6671 82.6306 18.9308 83.008 20.099C83.3853 21.2673 83.9512 22.2866 84.7058 23.1568C85.4604 24.0271 86.3919 24.7066 87.5002 25.1953C88.6085 25.6841 89.8819 25.9285 91.3203 25.9285C92.7824 25.9285 94.0617 25.6841 95.1582 25.1953C96.2547 24.7066 97.1803 24.0271 97.9349 23.1568C98.6895 22.2866 99.2554 21.2673 99.6327 20.099C100.01 18.9308 100.199 17.6671 100.199 16.3081C100.199 14.9491 100.01 13.6795 99.6327 12.4993C99.2554 11.3191 98.6895 10.2939 97.9349 9.42366C97.1803 8.55341 96.2547 7.86795 95.1582 7.36726C94.0617 6.86657 92.7824 6.61623 91.3203 6.61623C89.8819 6.61623 88.6085 6.86657 87.5002 7.36726C86.3919 7.86795 85.4604 8.55341 84.7058 9.42366C83.9512 10.2939 83.3853 11.3191 83.008 12.4993C82.6306 13.6795 82.442 14.9491 82.442 16.3081ZM103.183 7.04539V25.5351H106.19V14.0193C106.19 13.6616 106.278 13.2146 106.455 12.6781C106.632 12.1417 106.915 11.6231 107.304 11.1224C107.693 10.6217 108.2 10.1926 108.825 9.83494C109.45 9.4773 110.199 9.29849 111.071 9.29849C111.755 9.29849 112.315 9.39982 112.751 9.60248C113.188 9.80514 113.535 10.0912 113.795 10.4608C114.054 10.8304 114.237 11.2655 114.343 11.7662C114.449 12.2669 114.502 12.8152 114.502 13.4113V25.5351H117.509V14.0193C117.509 12.5887 117.933 11.4443 118.782 10.586C119.631 9.72764 120.798 9.29849 122.284 9.29849C123.015 9.29849 123.61 9.40578 124.07 9.62036C124.53 9.83494 124.89 10.127 125.149 10.4966C125.408 10.8661 125.585 11.3012 125.68 11.8019C125.774 12.3026 125.821 12.8391 125.821 13.4113V25.5351H128.828V11.9807C128.828 11.027 128.68 10.2105 128.386 9.53095C128.091 8.85144 127.678 8.29711 127.148 7.86795C126.617 7.43879 125.98 7.12288 125.238 6.92022C124.495 6.71756 123.663 6.61623 122.744 6.61623C121.541 6.61623 120.439 6.89041 119.437 7.43879C118.434 7.98716 117.627 8.76203 117.014 9.76341C116.636 8.61898 115.988 7.80835 115.068 7.3315C114.148 6.85465 113.123 6.61623 111.991 6.61623C109.42 6.61623 107.451 7.66528 106.084 9.76341H106.013V7.04539H103.183ZM145.501 14.5199H134.996C135.043 13.8047 135.196 13.1311 135.456 12.4993C135.715 11.8675 136.069 11.3132 136.517 10.8363C136.965 10.3595 137.501 9.98395 138.126 9.70977C138.751 9.43558 139.453 9.29849 140.231 9.29849C140.985 9.29849 141.675 9.43558 142.3 9.70977C142.925 9.98395 143.467 10.3535 143.927 10.8184C144.387 11.2834 144.752 11.8377 145.024 12.4814C145.295 13.1252 145.454 13.8047 145.501 14.5199ZM148.402 19.6699H145.43C145.171 20.8858 144.635 21.7918 143.821 22.3879C143.007 22.984 141.964 23.282 140.691 23.282C139.7 23.282 138.839 23.1151 138.108 22.7813C137.377 22.4475 136.776 22.0005 136.305 21.4402C135.833 20.8799 135.491 20.2361 135.279 19.5089C135.066 18.7817 134.972 18.0128 134.996 17.2022H148.685C148.732 16.0816 148.632 14.9014 148.384 13.6616C148.136 12.4218 147.688 11.2774 147.04 10.2283C146.391 9.17927 145.531 8.315 144.458 7.63549C143.385 6.95598 142.035 6.61623 140.408 6.61623C139.158 6.61623 138.008 6.85465 136.959 7.3315C135.91 7.80835 135.002 8.47592 134.235 9.33425C133.469 10.1926 132.873 11.2059 132.449 12.3741C132.025 13.5424 131.812 14.8299 131.812 16.2366C131.859 17.6433 132.066 18.9427 132.431 20.1348C132.797 21.3269 133.345 22.3521 134.076 23.2105C134.807 24.0688 135.709 24.7364 136.782 25.2132C137.855 25.6901 139.122 25.9285 140.584 25.9285C142.66 25.9285 144.381 25.4039 145.749 24.3549C147.117 23.3058 148.001 21.7442 148.402 19.6699ZM155.419 7.04539V1.50206H152.412V7.04539H149.299V9.72765H152.412V21.4938C152.412 22.3521 152.494 23.0436 152.66 23.5681C152.825 24.0926 153.078 24.4979 153.42 24.784C153.762 25.0702 154.21 25.2668 154.764 25.3741C155.318 25.4814 155.985 25.5351 156.763 25.5351H159.062V22.8528H157.682C157.211 22.8528 156.828 22.8349 156.533 22.7992C156.238 22.7634 156.008 22.6859 155.843 22.5667C155.678 22.4475 155.566 22.2806 155.507 22.066C155.448 21.8514 155.419 21.5653 155.419 21.2077V9.72765H159.062V7.04539H155.419ZM173.931 13.5543H178.848C178.777 12.3622 178.494 11.331 177.999 10.4608C177.504 9.59055 176.861 8.86337 176.071 8.27923C175.281 7.69509 174.385 7.25997 173.383 6.97387C172.381 6.68776 171.337 6.5447 170.253 6.5447C168.767 6.5447 167.446 6.79505 166.291 7.29574C165.136 7.79643 164.157 8.49381 163.355 9.3879C162.553 10.282 161.946 11.343 161.533 12.5708C161.121 13.7987 160.914 15.1279 160.914 16.5585C160.914 17.9413 161.138 19.2109 161.587 20.3673C162.035 21.5236 162.659 22.519 163.461 23.3535C164.263 24.188 165.236 24.8377 166.379 25.3026C167.523 25.7675 168.779 26 170.147 26C172.575 26 174.568 25.3563 176.124 24.0688C177.681 22.7813 178.624 20.9097 178.954 18.4539H174.108C173.943 19.5984 173.536 20.5103 172.888 21.1898C172.239 21.8693 171.314 22.2091 170.111 22.2091C169.333 22.2091 168.673 22.0303 168.13 21.6726C167.588 21.315 167.158 20.856 166.839 20.2957C166.521 19.7354 166.291 19.1096 166.15 18.4182C166.008 17.7267 165.937 17.0472 165.937 16.3796C165.937 15.6882 166.008 14.9908 166.15 14.2875C166.291 13.5841 166.533 12.9404 166.875 12.3563C167.217 11.7721 167.659 11.2953 168.201 10.9257C168.743 10.5562 169.415 10.3714 170.217 10.3714C172.363 10.3714 173.601 11.4324 173.931 13.5543ZM181.231 0V25.5351H186.254V15.8432C186.254 13.9596 186.561 12.6066 187.174 11.784C187.787 10.9615 188.777 10.5502 190.145 10.5502C191.348 10.5502 192.185 10.9257 192.656 11.6768C193.128 12.4278 193.364 13.5662 193.364 15.0922V25.5351H198.387V14.1623C198.387 13.0179 198.286 11.9748 198.086 11.033C197.885 10.0912 197.538 9.29253 197.042 8.63686C196.547 7.9812 195.869 7.46859 195.009 7.09904C194.148 6.72948 193.045 6.5447 191.701 6.5447C190.758 6.5447 189.791 6.78908 188.801 7.27785C187.81 7.76662 186.997 8.54745 186.36 9.62036H186.254V0H181.231ZM201.442 12.7318C201.513 11.5397 201.807 10.5502 202.326 9.76341C202.845 8.97661 203.505 8.3448 204.307 7.86795C205.109 7.3911 206.011 7.05135 207.013 6.84869C208.015 6.64603 209.023 6.5447 210.037 6.5447C210.957 6.5447 211.888 6.61027 212.832 6.7414C213.775 6.87254 214.635 7.12884 215.414 7.51032C216.192 7.89179 216.829 8.42228 217.324 9.10179C217.819 9.7813 218.067 10.6813 218.067 11.8019V21.4223C218.067 22.2568 218.114 23.0555 218.208 23.8184C218.302 24.5814 218.467 25.1536 218.703 25.5351H213.61C213.515 25.249 213.439 24.9569 213.38 24.6589C213.321 24.3608 213.28 24.0569 213.256 23.7469C212.454 24.5814 211.511 25.1655 210.426 25.4993C209.341 25.8331 208.233 26 207.101 26C206.229 26 205.415 25.8927 204.661 25.6781C203.906 25.4635 203.246 25.1298 202.68 24.6768C202.114 24.2237 201.672 23.6515 201.353 22.9601C201.035 22.2687 200.876 21.4461 200.876 20.4924C200.876 19.4434 201.059 18.5791 201.424 17.8996C201.79 17.2201 202.261 16.6777 202.839 16.2724C203.417 15.867 204.077 15.563 204.82 15.3604C205.563 15.1577 206.311 14.9968 207.066 14.8776C207.821 14.7584 208.563 14.663 209.294 14.5915C210.025 14.5199 210.674 14.4127 211.24 14.2696C211.806 14.1265 212.254 13.9179 212.584 13.6437C212.914 13.3696 213.067 12.9702 213.044 12.4457C213.044 11.8973 212.955 11.4622 212.778 11.1403C212.602 10.8184 212.366 10.5681 212.071 10.3893C211.776 10.2105 211.434 10.0912 211.045 10.0316C210.656 9.97203 210.238 9.94223 209.79 9.94223C208.799 9.94223 208.021 10.1568 207.455 10.586C206.889 11.0151 206.559 11.7304 206.465 12.7318H201.442ZM213.044 16.4869C212.832 16.6777 212.566 16.8267 212.248 16.934C211.93 17.0413 211.588 17.1307 211.222 17.2022C210.857 17.2737 210.473 17.3333 210.073 17.381C209.672 17.4287 209.271 17.4883 208.87 17.5598C208.493 17.6314 208.121 17.7267 207.756 17.8459C207.39 17.9652 207.072 18.1261 206.801 18.3287C206.529 18.5314 206.311 18.7877 206.146 19.0977C205.981 19.4076 205.899 19.801 205.899 20.2779C205.899 20.7309 205.981 21.1123 206.146 21.4223C206.311 21.7322 206.535 21.9766 206.818 22.1554C207.101 22.3343 207.431 22.4594 207.809 22.5309C208.186 22.6025 208.575 22.6382 208.976 22.6382C209.966 22.6382 210.733 22.4713 211.275 22.1376C211.818 21.8038 212.218 21.4044 212.478 20.9395C212.737 20.4746 212.896 20.0037 212.955 19.5268C213.014 19.05 213.044 18.6685 213.044 18.3824V16.4869ZM227.772 7.04539V1.50206H222.749V7.04539H219.707V10.4429H222.749V21.3508C222.749 22.2806 222.902 23.0316 223.209 23.6039C223.515 24.1761 223.934 24.6171 224.464 24.9271C224.995 25.237 225.608 25.4457 226.304 25.553C226.999 25.6602 227.736 25.7139 228.515 25.7139C229.01 25.7139 229.517 25.702 230.035 25.6781C230.554 25.6543 231.026 25.6066 231.45 25.5351V21.6011C231.215 21.6488 230.967 21.6845 230.708 21.7084C230.448 21.7322 230.177 21.7442 229.894 21.7442C229.045 21.7442 228.479 21.6011 228.196 21.315C227.913 21.0289 227.772 20.4567 227.772 19.5983V10.4429H231.45V7.04539H227.772Z" fill="#FAFAFF"/>
</svg>
