<svg width="16" height="16" viewBox="0 0 16 16" fill="none" xmlns="http://www.w3.org/2000/svg">
<g opacity="0.74">
<path d="M1.42243 5.45429C1.22247 5.31147 1.1225 5.24005 1.03533 5.23078C0.904983 5.21692 0.774344 5.28415 0.709861 5.39828C0.666743 5.47459 0.666745 5.5961 0.666748 5.83912V10.1609C0.66674 10.6975 0.666733 11.1404 0.696211 11.5012C0.726828 11.8759 0.792538 12.2204 0.957398 12.544C1.21306 13.0457 1.62101 13.4537 2.12277 13.7094C2.44633 13.8742 2.7908 13.9399 3.16553 13.9705C3.52632 14 3.96923 14 4.50587 14H11.4943C12.0309 14 12.4738 14 12.8346 13.9705C13.2094 13.9399 13.5538 13.8742 13.8774 13.7094C14.3792 13.4537 14.7871 13.0457 15.0428 12.544C15.2076 12.2204 15.2733 11.8759 15.304 11.5012C15.3334 11.1404 15.3334 10.6975 15.3334 10.1609V5.83912C15.3334 5.72001 15.3334 5.66045 15.3225 5.61886C15.2732 5.43084 15.0688 5.32374 14.8861 5.39021C14.8457 5.40491 14.7961 5.43924 14.6969 5.50789L9.53552 9.08129C9.16956 9.33544 8.84824 9.55859 8.48321 9.64707C8.16393 9.72446 7.8305 9.72201 7.51239 9.63993C7.1487 9.54609 6.8307 9.31824 6.46851 9.05874L1.42243 5.45429Z" fill="#FAFAFF"/>
<path d="M14.7553 3.84581C14.8784 3.76061 14.9399 3.71801 14.9777 3.64949C15.007 3.59629 15.0238 3.51203 15.0171 3.45163C15.0084 3.37386 14.9754 3.32251 14.9093 3.21982C14.656 2.82643 14.2916 2.5017 13.8774 2.29065C13.5538 2.12579 13.2094 2.06008 12.8346 2.02946C12.4738 1.99999 12.0309 1.99999 11.4943 2H4.50588C3.96924 1.99999 3.52633 1.99999 3.16553 2.02946C2.7908 2.06008 2.44633 2.12579 2.12277 2.29065C1.75009 2.48054 1.42795 2.75507 1.18299 3.0889C1.10593 3.19393 1.06739 3.24644 1.0547 3.32614C1.04477 3.38846 1.05863 3.47505 1.08752 3.53116C1.12446 3.60291 1.18854 3.64868 1.3167 3.74022L7.16677 7.91884C7.65158 8.26514 7.75446 8.32539 7.84551 8.34888C7.95154 8.37624 8.06269 8.37706 8.16911 8.35126C8.26049 8.32911 8.36425 8.27038 8.8541 7.93125L14.7553 3.84581Z" fill="#FAFAFF"/>
</g>
</svg>
