<svg width="132" height="28" viewBox="0 0 132 28" fill="none" xmlns="http://www.w3.org/2000/svg">
<g clip-path="url(#clip0_1_6814)">
<path d="M131.086 12.6674V10.362H128.223V6.77809L128.127 6.80776L125.438 7.63048L125.385 7.64659V10.3622H121.141V8.84935C121.141 8.14494 121.298 7.60588 121.609 7.24639C121.917 6.8912 122.358 6.71063 122.92 6.71063C123.325 6.71063 123.743 6.80586 124.164 6.99366L124.27 7.04083V4.61299L124.22 4.59473C123.827 4.45346 123.293 4.38232 122.63 4.38232C121.795 4.38232 121.037 4.56404 120.375 4.92417C119.713 5.28481 119.192 5.79965 118.827 6.45422C118.464 7.10804 118.279 7.86317 118.279 8.69883V10.362H116.286V12.6674H118.279V22.3794H121.141V12.6674H125.385V18.8392C125.385 21.381 126.584 22.6691 128.948 22.6691C129.337 22.6691 129.746 22.6236 130.164 22.5345C130.589 22.4429 130.878 22.3515 131.048 22.2539L131.086 22.2315V19.9049L130.97 19.9819C130.814 20.0853 130.621 20.1699 130.394 20.2328C130.167 20.2968 129.976 20.3289 129.829 20.3289C129.275 20.3289 128.865 20.1797 128.611 19.8851C128.354 19.5879 128.223 19.0681 128.223 18.341V12.6674H131.086ZM109.895 20.3293C108.857 20.3293 108.038 19.9849 107.461 19.3065C106.88 18.6246 106.586 17.6525 106.586 16.4174C106.586 15.1432 106.88 14.1458 107.461 13.4519C108.038 12.7626 108.849 12.4128 109.872 12.4128C110.864 12.4128 111.654 12.7469 112.22 13.4064C112.788 14.0694 113.077 15.0587 113.077 16.3478C113.077 17.6528 112.806 18.6552 112.271 19.3258C111.739 19.9912 110.94 20.3293 109.895 20.3293ZM110.022 10.0725C108.041 10.0725 106.467 10.6532 105.345 11.7984C104.223 12.9437 103.655 14.5287 103.655 16.5096C103.655 18.3912 104.21 19.9046 105.304 21.0072C106.399 22.1102 107.889 22.6689 109.733 22.6689C111.654 22.6689 113.196 22.0801 114.318 20.9191C115.439 19.7593 116.008 18.1893 116.008 16.2546C116.008 14.3436 115.474 12.8189 114.422 11.7237C113.37 10.6279 111.889 10.0725 110.022 10.0725ZM99.0407 10.0725C97.6927 10.0725 96.5777 10.4173 95.7259 11.0971C94.869 11.781 94.4343 12.6779 94.4343 13.7632C94.4343 14.3274 94.5281 14.8286 94.7127 15.2536C94.8985 15.6801 95.186 16.0555 95.5679 16.3707C95.947 16.6832 96.532 17.0106 97.3073 17.3438C97.9591 17.612 98.4452 17.8388 98.754 18.0176C99.0558 18.1929 99.2699 18.369 99.3909 18.5406C99.5084 18.7085 99.5681 18.9382 99.5681 19.2218C99.5681 20.0292 98.9634 20.422 97.7193 20.422C97.2579 20.422 96.7315 20.3256 96.1549 20.1357C95.5824 19.9486 95.0421 19.6746 94.5528 19.3233L94.434 19.2381V21.9933L94.4776 22.0136C94.8825 22.2005 95.3931 22.3581 95.9948 22.4821C96.5953 22.6063 97.141 22.6694 97.615 22.6694C99.0777 22.6694 100.256 22.323 101.115 21.6391C101.98 20.9505 102.418 20.0325 102.418 18.9096C102.418 18.0995 102.182 17.4049 101.717 16.8447C101.255 16.289 100.454 15.7788 99.3352 15.3279C98.4443 14.9703 97.8735 14.6735 97.638 14.4456C97.4111 14.2255 97.2958 13.9141 97.2958 13.5199C97.2958 13.1704 97.4381 12.8904 97.7301 12.6637C98.0244 12.4358 98.4341 12.3199 98.948 12.3199C99.4248 12.3199 99.9126 12.3953 100.398 12.5429C100.883 12.6905 101.308 12.8882 101.664 13.13L101.781 13.2099V10.5964L101.736 10.5771C101.408 10.4365 100.975 10.3161 100.45 10.2185C99.9274 10.1215 99.4532 10.0725 99.0407 10.0725ZM86.9741 20.3293C85.9357 20.3293 85.1165 19.9849 84.5395 19.3065C83.9588 18.6246 83.6651 17.6528 83.6651 16.4174C83.6651 15.1432 83.9591 14.1458 84.5402 13.4519C85.1171 12.7626 85.9281 12.4128 86.9511 12.4128C87.943 12.4128 88.7329 12.7469 89.2988 13.4064C89.8676 14.0694 90.1561 15.0587 90.1561 16.3478C90.1561 17.6528 89.8846 18.6552 89.3494 19.3258C88.818 19.9912 88.0192 20.3293 86.9741 20.3293ZM87.1017 10.0725C85.1195 10.0725 83.5455 10.6532 82.4239 11.7984C81.3024 12.9437 80.7334 14.5287 80.7334 16.5096C80.7334 18.392 81.2888 19.9046 82.3837 21.0072C83.4785 22.1102 84.9684 22.6689 86.8118 22.6689C88.7324 22.6689 90.2754 22.0801 91.3971 20.9191C92.5185 19.7593 93.087 18.1893 93.087 16.2546C93.087 14.3436 92.5536 12.8189 91.5012 11.7237C90.4484 10.6279 88.968 10.0725 87.1017 10.0725ZM76.3895 12.4432V10.362H73.5627V22.3791H76.3895V16.2319C76.3895 15.1867 76.6265 14.3279 77.0942 13.6793C77.5559 13.0384 78.1712 12.7137 78.9224 12.7137C79.177 12.7137 79.4628 12.7556 79.7724 12.8387C80.0787 12.9212 80.3006 13.0109 80.4315 13.1052L80.5503 13.1913V10.3415L80.5045 10.3218C80.2413 10.21 79.8688 10.1536 79.3976 10.1536C78.6873 10.1536 78.0516 10.3818 77.5071 10.8312C77.0291 11.2262 76.6837 11.7678 76.4196 12.4432H76.3895ZM68.5005 10.0725C67.2036 10.0725 66.0469 10.3506 65.063 10.8988C64.0771 11.4483 63.3146 12.2327 62.7958 13.2302C62.2793 14.2252 62.0171 15.3875 62.0171 16.6837C62.0171 17.8192 62.2713 18.8611 62.7739 19.7795C63.2767 20.6993 63.9883 21.419 64.8891 21.9181C65.7887 22.4165 66.8284 22.6693 67.9796 22.6693C69.323 22.6693 70.4699 22.4007 71.3895 21.871L71.4267 21.8497V19.2599L71.3079 19.3467C70.8913 19.6501 70.4258 19.8923 69.9249 20.0668C69.4253 20.2412 68.9698 20.3293 68.5704 20.3293C67.4612 20.3293 66.5707 19.9822 65.9244 19.298C65.2767 18.6129 64.9482 17.6508 64.9482 16.4401C64.9482 15.2219 65.2907 14.2351 65.9657 13.507C66.6387 12.781 67.5308 12.4128 68.617 12.4128C69.5461 12.4128 70.4515 12.7274 71.3081 13.3487L71.4267 13.4348V10.7061L71.3884 10.6845C71.066 10.5041 70.6264 10.3551 70.0806 10.2421C69.5371 10.1293 69.0056 10.0725 68.5005 10.0725ZM60.0702 10.3622H57.2435V22.3791H60.0702V10.3622ZM58.6858 5.24284C58.2205 5.24284 57.8147 5.40122 57.4813 5.71507C57.1466 6.0298 56.9768 6.42607 56.9768 6.89374C56.9768 7.35404 57.1445 7.74309 57.4761 8.04945C57.8056 8.35493 58.2126 8.50976 58.6859 8.50976C59.159 8.50976 59.5676 8.35493 59.9009 8.04996C60.2365 7.74309 60.4067 7.35417 60.4067 6.89374C60.4067 6.44243 60.241 6.05022 59.9148 5.72775C59.5887 5.40591 59.1751 5.24284 58.6858 5.24284ZM51.6328 9.47552V22.3791H54.5176V5.6107H50.5248L45.4498 18.0658L40.5247 5.6107H36.3694V22.379H39.0804V9.47426H39.1735L44.3742 22.3791H46.4201L51.5397 9.47552H51.6328Z" fill="#FAFAFF"/>
<path d="M13.298 13.3053H0V0.00732422H13.298V13.3053Z" fill="#FAFAFF"/>
<path d="M27.9804 13.3053H14.6826V0.00732422H27.9804V13.3053Z" fill="#FAFAFF"/>
<path d="M13.2976 27.9927H0V14.6948H13.2976V27.9927Z" fill="#FAFAFF"/>
<path d="M27.9804 27.9927H14.6826V14.6948H27.9804V27.9927Z" fill="#FAFAFF"/>
</g>
<defs>
<clipPath id="clip0_1_6814">
<rect width="131.086" height="28" fill="white"/>
</clipPath>
</defs>
</svg>
