<svg width="16" height="16" viewBox="0 0 16 16" fill="none" xmlns="http://www.w3.org/2000/svg">
<g opacity="0.8">
<path d="M6.0447 1.6079C6.15902 1.35511 6.10484 1.05796 5.90867 0.861785C5.7125 0.665613 5.41534 0.611434 5.16256 0.725752C2.5127 1.92412 0.666748 4.5916 0.666748 7.69165C0.666748 11.912 4.08798 15.3332 8.30829 15.3332C11.4083 15.3332 14.0758 13.4872 15.2742 10.8374C15.3885 10.5846 15.3343 10.2874 15.1382 10.0913C14.942 9.8951 14.6448 9.84092 14.392 9.95524C13.6011 10.313 12.7226 10.5124 11.7957 10.5124C8.3118 10.5124 5.48752 7.68814 5.48752 4.20421C5.48752 3.27735 5.68699 2.39888 6.0447 1.6079Z" fill="#FAFAFF"/>
</g>
</svg>
