<svg width="1192" height="345" viewBox="0 0 1192 345" fill="none" xmlns="http://www.w3.org/2000/svg">
<path d="M597.106 43.4733C412.964 77.4827 260.328 120.756 155.524 164.315C103.118 186.096 62.6985 207.938 36.2812 228.713C23.0723 239.101 13.3858 249.205 7.44746 258.881C1.51139 268.554 -0.662212 277.769 1.09106 286.41C2.84436 295.051 8.45819 302.792 17.7357 309.592C27.0171 316.395 39.9384 322.235 56.2354 327.067C88.8285 336.731 134.816 342.333 191.9 343.609C306.06 346.162 464.486 331.418 648.629 297.408C832.772 263.399 971.928 222.199 1063.25 180.716C1108.92 159.974 1142.59 139.173 1163.95 119.187C1185.32 99.1882 1194.27 80.1007 1190.75 62.7576C1187.23 45.4183 1171.54 31.232 1143.99 20.7937C1116.46 10.3617 1077.22 3.72761 1026.88 1.41609C926.197 -3.20658 781.251 9.46331 597.106 43.4733Z" stroke="url(#paint0_radial_0_2260)" stroke-opacity="0.12"/>
<path d="M597.106 43.4733C412.964 77.4827 260.328 120.756 155.524 164.315C103.118 186.096 62.6985 207.938 36.2812 228.713C23.0723 239.101 13.3858 249.205 7.44746 258.881C1.51139 268.554 -0.662212 277.769 1.09106 286.41C2.84436 295.051 8.45819 302.792 17.7357 309.592C27.0171 316.395 39.9384 322.235 56.2354 327.067C88.8285 336.731 134.816 342.333 191.9 343.609C306.06 346.162 464.486 331.418 648.629 297.408C832.772 263.399 971.928 222.199 1063.25 180.716C1108.92 159.974 1142.59 139.173 1163.95 119.187C1185.32 99.1882 1194.27 80.1007 1190.75 62.7576C1187.23 45.4183 1171.54 31.232 1143.99 20.7937C1116.46 10.3617 1077.22 3.72761 1026.88 1.41609C926.197 -3.20658 781.251 9.46331 597.106 43.4733Z" stroke="url(#paint1_radial_0_2260)" stroke-opacity="0.12"/>
<defs>
<radialGradient id="paint0_radial_0_2260" cx="0" cy="0" r="1" gradientUnits="userSpaceOnUse" gradientTransform="translate(122.912 339.51) rotate(-43.8961) scale(331.67 1072.4)">
<stop stop-color="white"/>
<stop offset="1" stop-color="white" stop-opacity="0"/>
</radialGradient>
<radialGradient id="paint1_radial_0_2260" cx="0" cy="0" r="1" gradientUnits="userSpaceOnUse" gradientTransform="translate(30.7335 321.356) rotate(-66.1941) scale(48.9954 228.18)">
<stop stop-color="white" stop-opacity="0.6"/>
<stop offset="1" stop-color="white" stop-opacity="0"/>
</radialGradient>
</defs>
</svg>
