<svg width="148" height="22" viewBox="0 0 148 22" fill="none" xmlns="http://www.w3.org/2000/svg">
<path fill-rule="evenodd" clip-rule="evenodd" d="M0 21.6087V0.668114H5.50718L13.4166 11.4386C13.574 11.6527 13.8193 12.0976 14.1684 12.762C14.5161 13.4245 14.896 14.212 15.3161 15.1296C15.2036 14.2608 15.1199 13.4885 15.067 12.8107C15.0141 12.1374 14.9888 11.5364 14.9888 11.0092V0.668114H20.4669V21.6087H14.9888L7.07938 10.7943C6.91917 10.5749 6.66177 10.1355 6.31299 9.47123C5.96494 8.809 5.59023 8.03086 5.18021 7.13232C5.29233 8.01114 5.37569 8.78823 5.42897 9.46638C5.48191 10.1393 5.50718 10.742 5.50718 11.268V21.6087H0ZM29.3074 13.7823H34.9855L32.8521 6.87348C32.7878 6.66417 32.6978 6.32542 32.5833 5.85802C32.4698 5.39437 32.3196 4.79372 32.139 4.05643C32.0172 4.57402 31.892 5.06221 31.773 5.53105C31.6539 5.99846 31.5411 6.44792 31.4117 6.87348L29.3074 13.7823ZM21.3101 21.6087L28.5358 0.668114H35.6886L42.9243 21.6087H37.2462L36.1868 17.8592H28.077L26.9882 21.6087H21.3101ZM44.9968 14.6763C45.8462 15.6382 46.686 16.3606 47.5112 16.8343C48.3363 17.3128 49.1567 17.5519 49.9767 17.5519C50.7386 17.5519 51.3683 17.3471 51.8565 16.9367C52.3495 16.5267 52.5938 16.0091 52.5938 15.3794C52.5938 14.6812 52.3838 14.1442 51.9589 13.7681C51.5344 13.3924 50.5725 13.0017 49.0785 12.6014C47.0278 12.0495 45.5777 11.3271 44.7283 10.4435C43.8786 9.55462 43.454 8.33911 43.454 6.79601C43.454 4.79442 44.1228 3.1589 45.4657 1.89428C46.8032 0.62971 48.5415 0 50.6749 0C51.8323 0 52.9256 0.156018 53.9608 0.463607C54.9961 0.77604 55.9724 1.24488 56.9 1.87459L55.113 5.98082C54.4635 5.42897 53.7996 5.00927 53.1163 4.7259C52.4326 4.44773 51.7589 4.30623 51.095 4.30623C50.4065 4.30623 49.8497 4.4723 49.4204 4.79926C48.9906 5.12623 48.7758 5.55112 48.7758 6.06387C48.7758 6.59115 48.9661 7.01086 49.3422 7.32364C49.7179 7.64092 50.4455 7.93882 51.5195 8.22668L51.7783 8.30004C54.1072 8.92491 55.6355 9.61825 56.3679 10.3701C56.8658 10.8877 57.2419 11.5029 57.5007 12.2253C57.7595 12.9429 57.8861 13.7439 57.8861 14.6179C57.8861 16.8392 57.1589 18.6262 55.6991 19.9739C54.239 21.326 52.2959 22 49.8646 22C48.4049 22 47.0766 21.7509 45.8805 21.2578C44.6844 20.7596 43.5322 19.9836 42.4237 18.9241L44.9968 14.6763ZM60.8292 14.6763C61.6786 15.6382 62.5183 16.3606 63.3435 16.8343C64.1687 17.3128 64.989 17.5519 65.809 17.5519C66.5709 17.5519 67.2006 17.3471 67.6888 16.9367C68.1819 16.5267 68.4261 16.0091 68.4261 15.3794C68.4261 14.6812 68.2161 14.1442 67.7912 13.7681C67.3667 13.3924 66.4049 13.0017 64.9109 12.6014C62.8601 12.0495 61.4101 11.3271 60.5607 10.4435C59.7109 9.55462 59.2864 8.33911 59.2864 6.79601C59.2864 4.79442 59.9552 3.1589 61.298 1.89428C62.6356 0.62971 64.3738 0 66.5072 0C67.6646 0 68.7579 0.156018 69.7932 0.463607C70.8284 0.77604 71.8048 1.24488 72.7324 1.87459L70.9453 5.98082C70.2959 5.42897 69.6319 5.00927 68.9486 4.7259C68.2649 4.44773 67.5913 4.30623 66.9273 4.30623C66.2387 4.30623 65.6821 4.4723 65.2527 4.79926C64.823 5.12623 64.6081 5.55112 64.6081 6.06387C64.6081 6.59115 64.7984 7.01086 65.1745 7.32364C65.5503 7.64092 66.2779 7.93882 67.3518 8.22668L67.6106 8.30004C69.9395 8.92491 71.4678 9.61825 72.2002 10.3701C72.6981 10.8877 73.0742 11.5029 73.333 12.2253C73.5918 12.9429 73.7185 13.7439 73.7185 14.6179C73.7185 16.8392 72.9912 18.6262 71.5314 19.9739C70.0714 21.326 68.1282 22 65.6969 22C64.2372 22 62.9089 21.7509 61.7128 21.2578C60.5167 20.7596 59.3646 19.9836 58.256 18.9241L60.8292 14.6763ZM90.9081 1.31337V7.55303C90.1272 6.6839 89.3459 6.04899 88.5695 5.64382C87.7931 5.23869 86.9583 5.03349 86.0746 5.03349C84.4342 5.03349 83.1063 5.59503 82.0908 6.71331C81.075 7.83605 80.5674 9.29579 80.5674 11.0974C80.5674 12.7772 81.085 14.1684 82.1199 15.277C83.1551 16.3852 84.4733 16.9367 86.0746 16.9367C86.9583 16.9367 87.7931 16.7319 88.5695 16.3264C89.3459 15.9212 90.1272 15.2818 90.9081 14.403V20.6572C90.0002 21.0918 89.1017 21.4239 88.2035 21.6436C87.3098 21.8633 86.4019 21.9706 85.4888 21.9706C84.3415 21.9706 83.2869 21.8339 82.3202 21.5606C81.3535 21.2921 80.4598 20.8769 79.6495 20.3254C78.087 19.2757 76.8957 17.9574 76.0757 16.3655C75.2553 14.7691 74.8453 12.9772 74.8453 10.9853C74.8453 9.38368 75.1038 7.92879 75.6263 6.61539C76.1439 5.30198 76.93 4.11558 77.9797 3.04648C78.971 2.02613 80.0889 1.26458 81.3338 0.756673C82.5742 0.253959 83.9606 0 85.4888 0C86.4019 0 87.3098 0.107227 88.2035 0.326961C89.1017 0.546656 90.0002 0.878822 90.9081 1.31337ZM114.44 11.0147C114.44 12.5232 114.162 13.9342 113.61 15.2476C113.058 16.5658 112.252 17.7426 111.193 18.7822C110.124 19.8126 108.903 20.6036 107.531 21.1651C106.16 21.7215 104.734 22 103.255 22C101.755 22 100.325 21.7215 98.958 21.1651C97.5862 20.6036 96.3849 19.8126 95.3448 18.7822C94.266 17.7426 93.4505 16.561 92.8893 15.2331C92.3326 13.9096 92.0544 12.5035 92.0544 11.0147C92.0544 9.51552 92.3326 8.10938 92.8893 6.78633C93.4505 5.46808 94.266 4.28651 95.3448 3.24679C96.3849 2.2164 97.5862 1.42548 98.958 0.863941C100.325 0.307592 101.755 0.02907 103.255 0.02907C104.743 0.02907 106.174 0.307592 107.551 0.863941C108.933 1.42548 110.143 2.2164 111.193 3.24679C112.243 4.27682 113.043 5.45354 113.605 6.78148C114.162 8.10453 114.44 9.51552 114.44 11.0147ZM103.255 17.1665C104.836 17.1665 106.145 16.5852 107.18 15.4233C108.215 14.2563 108.732 12.7869 108.732 11.0147C108.732 9.26188 108.21 7.79694 107.16 6.62022C106.111 5.4487 104.807 4.86259 103.255 4.86259C101.673 4.86259 100.364 5.4487 99.3289 6.61539C98.294 7.78242 97.7764 9.25188 97.7764 11.0147C97.7764 12.8063 98.284 14.2809 99.3047 15.433C100.325 16.5904 101.643 17.1665 103.255 17.1665ZM140.847 21.4433H135.511L134.281 12.3914C134.197 11.7516 134.119 11.0389 134.046 10.2577C133.973 9.47677 133.91 8.62216 133.851 7.6994C133.719 8.58306 133.455 9.69127 133.065 11.0147C132.982 11.2929 132.918 11.498 132.879 11.6299L130.033 21.4433H126.23L123.383 11.6299C123.344 11.498 123.285 11.2929 123.212 11.0147C122.812 9.69127 122.548 8.58791 122.426 7.71393C122.368 8.50486 122.299 9.2861 122.226 10.0625C122.148 10.8438 122.055 11.615 121.952 12.3914L120.722 21.4433H115.415L118.647 0.502718H124.296L127.46 11.3026C127.479 11.3759 127.518 11.5029 127.572 11.6738C127.87 12.6353 128.055 13.4605 128.134 14.1491C128.168 13.7778 128.241 13.3629 128.344 12.909C128.451 12.4596 128.593 11.9129 128.773 11.2732L131.966 0.502718H137.63L140.847 21.4433ZM143.32 2.64754V4.04984H143.95C144.305 4.04984 144.569 3.99482 144.734 3.88514C144.898 3.77512 144.979 3.60317 144.979 3.36894C144.979 3.1198 144.895 2.93679 144.723 2.82328C144.551 2.70601 144.276 2.64754 143.906 2.64754H143.32ZM142.364 2.0469H144.078C144.697 2.0469 145.166 2.14928 145.484 2.35448C145.803 2.55585 145.96 2.85615 145.96 3.25543C145.96 3.581 145.876 3.84848 145.704 4.06092C145.532 4.27682 145.287 4.41591 144.968 4.48579L145.96 6.49602H144.895L144.012 4.6394H143.32V6.49602H142.364V2.0469ZM143.987 0.973965C143.525 0.973965 143.097 1.05457 142.701 1.21582C142.306 1.38049 141.951 1.61855 141.632 1.93723C141.302 2.27039 141.05 2.64754 140.874 3.06135C140.698 3.47133 140.61 3.90347 140.61 4.34635C140.61 4.79337 140.695 5.21792 140.863 5.62445C141.028 6.02718 141.273 6.38979 141.588 6.71192C141.91 7.03783 142.273 7.28695 142.68 7.45894C143.086 7.63469 143.503 7.72258 143.932 7.72258C144.393 7.72258 144.833 7.63848 145.25 7.46998C145.664 7.30532 146.037 7.05616 146.371 6.73404C146.685 6.42645 146.931 6.07113 147.103 5.67219C147.275 5.26912 147.359 4.84805 147.359 4.40138C147.359 3.92909 147.278 3.48586 147.118 3.07969C146.953 2.66932 146.714 2.30325 146.396 1.98113C146.066 1.65141 145.697 1.40231 145.287 1.23036C144.88 1.05837 144.444 0.973965 143.987 0.973965ZM143.979 0.377118C144.528 0.377118 145.041 0.476093 145.528 0.677457C146.011 0.878822 146.444 1.17187 146.824 1.56351C147.191 1.93338 147.473 2.35828 147.667 2.83057C147.861 3.30666 147.956 3.80833 147.956 4.3429C147.956 4.892 147.857 5.40476 147.659 5.88429C147.458 6.36418 147.172 6.78528 146.792 7.15514C146.403 7.53226 145.971 7.81772 145.488 8.01908C145.005 8.2208 144.503 8.31942 143.979 8.31942C143.452 8.31942 142.947 8.217 142.463 8.01184C141.98 7.80698 141.548 7.51013 141.167 7.12228C140.793 6.74478 140.504 6.31644 140.31 5.84035C140.113 5.3646 140.014 4.86638 140.014 4.3429C140.014 3.81561 140.116 3.31011 140.321 2.81949C140.526 2.32886 140.823 1.88944 141.211 1.50504C141.581 1.13138 142.002 0.849405 142.467 0.662922C142.936 0.472254 143.441 0.377118 143.979 0.377118Z" fill="#FAFAFF"/>
</svg>
