<svg width="18" height="18" viewBox="0 0 18 18" fill="none" xmlns="http://www.w3.org/2000/svg">
<path d="M4.39689 0.750035L4.50007 0.750072C4.91429 0.750072 5.25007 1.08586 5.25007 1.50007C5.25007 1.91429 4.91429 2.25007 4.50007 2.25007C3.75431 2.25007 3.52855 2.25651 3.36184 2.30118C2.84421 2.43988 2.43988 2.84421 2.30118 3.36184C2.25651 3.52855 2.25007 3.75431 2.25007 4.50007C2.25007 4.91429 1.91429 5.25007 1.50007 5.25007C1.08586 5.25007 0.750073 4.91429 0.750073 4.50007L0.750036 4.39689C0.749713 3.80035 0.749473 3.35735 0.852295 2.97362C1.1297 1.93834 1.93834 1.1297 2.97362 0.852295C3.35735 0.749473 3.80035 0.749712 4.39689 0.750035Z" fill="#FF7F3E"/>
<path d="M14.6383 2.30118C14.4716 2.25651 14.2458 2.25007 13.5001 2.25007C13.0859 2.25007 12.7501 1.91429 12.7501 1.50007C12.7501 1.08586 13.0859 0.750072 13.5001 0.750072L13.6033 0.750035C14.1998 0.749712 14.6428 0.749473 15.0265 0.852295C16.0618 1.1297 16.8704 1.93834 17.1478 2.97362C17.2507 3.35735 17.2504 3.80035 17.2501 4.39689L17.2501 4.50007C17.2501 4.91429 16.9143 5.25007 16.5001 5.25007C16.0859 5.25007 15.7501 4.91429 15.7501 4.50007C15.7501 3.75431 15.7436 3.52855 15.699 3.36184C15.5603 2.84421 15.1559 2.43988 14.6383 2.30118Z" fill="#FF7F3E"/>
<path d="M6.75007 1.50007C6.75007 1.08586 7.08586 0.750072 7.50007 0.750072H10.5001C10.9143 0.750072 11.2501 1.08586 11.2501 1.50007C11.2501 1.91429 10.9143 2.25007 10.5001 2.25007H7.50007C7.08586 2.25007 6.75007 1.91429 6.75007 1.50007Z" fill="#FF7F3E"/>
<path d="M1.50007 6.75007C1.91429 6.75007 2.25007 7.08586 2.25007 7.50007V8.65188C2.29531 8.62577 2.34131 8.60079 2.38803 8.57698C2.75203 8.39151 3.13956 8.31759 3.56113 8.28314C3.96703 8.24998 4.46529 8.24999 5.06902 8.25H5.43097C6.0347 8.24999 6.53298 8.24998 6.93887 8.28314C7.36044 8.31759 7.74797 8.39151 8.11197 8.57698C8.67646 8.8646 9.1354 9.32354 9.42302 9.88803C9.60849 10.252 9.68241 10.6396 9.71686 11.0611C9.75002 11.467 9.75001 11.9653 9.75 12.569V12.931C9.75001 13.5347 9.75002 14.033 9.71686 14.4389C9.68241 14.8604 9.60849 15.248 9.42302 15.612C9.39919 15.6587 9.37418 15.7048 9.34804 15.7501H10.5001C10.9143 15.7501 11.2501 16.0859 11.2501 16.5001C11.2501 16.9143 10.9143 17.2501 10.5001 17.2501H5.06908C4.46536 17.2501 3.9671 17.2501 3.5612 17.2169C3.13963 17.1825 2.7521 17.1086 2.3881 16.9231C2.17642 16.8152 1.97958 16.6833 1.80105 16.5307C1.66071 16.4108 1.53168 16.2781 1.41565 16.1343C1.28566 15.9733 1.17197 15.7984 1.07698 15.612C0.891513 15.248 0.81759 14.8604 0.783146 14.4389C0.749983 14.033 0.749991 13.5347 0.75 12.931V12.569C0.749999 12.4896 0.749998 12.4119 0.750072 12.3361L0.750073 7.50007C0.750073 7.08586 1.08586 6.75007 1.50007 6.75007Z" fill="#FF7F3E"/>
<path d="M16.5001 6.75007C16.9143 6.75007 17.2501 7.08586 17.2501 7.50007V10.5001C17.2501 10.9143 16.9143 11.2501 16.5001 11.2501C16.0859 11.2501 15.7501 10.9143 15.7501 10.5001V7.50007C15.7501 7.08586 16.0859 6.75007 16.5001 6.75007Z" fill="#FF7F3E"/>
<path d="M16.5001 12.7501C16.9143 12.7501 17.2501 13.0859 17.2501 13.5001L17.2501 13.6033C17.2504 14.1998 17.2507 14.6428 17.1478 15.0265C16.8704 16.0618 16.0618 16.8704 15.0265 17.1478C14.6428 17.2507 14.1998 17.2504 13.6033 17.2501L13.5001 17.2501C13.0859 17.2501 12.7501 16.9143 12.7501 16.5001C12.7501 16.0859 13.0859 15.7501 13.5001 15.7501C14.2458 15.7501 14.4716 15.7436 14.6383 15.699C15.1559 15.5603 15.5603 15.1559 15.699 14.6383C15.7436 14.4716 15.7501 14.2458 15.7501 13.5001C15.7501 13.0859 16.0859 12.7501 16.5001 12.7501Z" fill="#FF7F3E"/>
</svg>
