<svg width="18" height="18" viewBox="0 0 18 18" fill="none" xmlns="http://www.w3.org/2000/svg">
<path d="M9 0.75C9.41421 0.75 9.75 1.08579 9.75 1.5V2.25H14.1289C14.5243 2.24999 14.8653 2.24998 15.1463 2.27293C15.4428 2.29715 15.7377 2.35064 16.0215 2.49524C16.4448 2.71095 16.789 3.05516 17.0048 3.47852C17.1494 3.76231 17.2028 4.05722 17.2271 4.35373C17.25 4.63466 17.25 4.97572 17.25 5.37108V10.3789C17.25 10.7743 17.25 11.1153 17.2271 11.3963C17.2028 11.6928 17.1494 11.9877 17.0048 12.2715C16.789 12.6948 16.4448 13.0391 16.0215 13.2548C15.7377 13.3994 15.4428 13.4528 15.1463 13.4771C14.8654 13.5 14.5243 13.5 14.129 13.5H13.0607L15.5303 15.9697C15.8232 16.2626 15.8232 16.7374 15.5303 17.0303C15.2374 17.3232 14.7626 17.3232 14.4697 17.0303L10.9393 13.5H9.75V16.5C9.75 16.9142 9.41421 17.25 9 17.25C8.58579 17.25 8.25 16.9142 8.25 16.5V13.5H7.06066L3.53033 17.0303C3.23744 17.3232 2.76256 17.3232 2.46967 17.0303C2.17678 16.7374 2.17678 16.2626 2.46967 15.9697L4.93934 13.5H3.87111C3.47578 13.5 3.13464 13.5 2.85373 13.4771C2.55722 13.4528 2.26231 13.3994 1.97852 13.2548C1.55516 13.0391 1.21095 12.6948 0.995237 12.2715C0.850642 11.9877 0.797155 11.6928 0.772929 11.3963C0.749977 11.1154 0.749988 10.7743 0.750001 10.3789V5.37109C0.749988 4.97575 0.749977 4.63465 0.772929 4.35373C0.797155 4.05722 0.850642 3.76231 0.995237 3.47852C1.21095 3.05516 1.55516 2.71095 1.97852 2.49524C2.26231 2.35064 2.55722 2.29715 2.85373 2.27293C3.13466 2.24998 3.47573 2.24999 3.87109 2.25H8.25V1.5C8.25 1.08579 8.58579 0.75 9 0.75Z" fill="#FF7F3E"/>
</svg>
