<svg width="18" height="18" viewBox="0 0 18 18" fill="none" xmlns="http://www.w3.org/2000/svg">
<path d="M9 1.5C9.41421 1.5 9.75 1.83579 9.75 2.25V3.75C9.75 4.16421 9.41421 4.5 9 4.5C8.58579 4.5 8.25 4.16421 8.25 3.75V2.25C8.25 1.83579 8.58579 1.5 9 1.5Z" fill="#6852D6"/>
<path d="M3 14.25C3 13.8358 3.33579 13.5 3.75 13.5H14.25C14.6642 13.5 15 13.8358 15 14.25C15 14.6642 14.6642 15 14.25 15H3.75C3.33579 15 3 14.6642 3 14.25Z" fill="#6852D6"/>
<path d="M3.45526 3.8946C3.16236 3.6017 2.68749 3.6017 2.3946 3.8946C2.1017 4.18749 2.1017 4.66236 2.3946 4.95526L3.45526 6.01592C3.74815 6.30881 4.22302 6.30881 4.51592 6.01592C4.80881 5.72302 4.80881 5.24815 4.51592 4.95526L3.45526 3.8946Z" fill="#6852D6"/>
<path d="M15.6053 3.8946C15.8982 4.18749 15.8982 4.66236 15.6053 4.95526L14.5447 6.01592C14.2518 6.30881 13.7769 6.30881 13.484 6.01592C13.1911 5.72302 13.1911 5.24815 13.484 4.95526L14.5447 3.8946C14.8376 3.6017 15.3124 3.6017 15.6053 3.8946Z" fill="#6852D6"/>
<path d="M3.80317 10.5C4.16709 7.95578 6.35515 6 9 6C11.6449 6 13.8329 7.95578 14.1968 10.5H16.5C16.9142 10.5 17.25 10.8358 17.25 11.25C17.25 11.6642 16.9142 12 16.5 12H1.5C1.08579 12 0.75 11.6642 0.75 11.25C0.75 10.8358 1.08579 10.5 1.5 10.5H3.80317Z" fill="#6852D6"/>
</svg>
