<svg width="16" height="16" viewBox="0 0 16 16" fill="none" xmlns="http://www.w3.org/2000/svg">
<g opacity="0.84">
<path d="M13.0897 5.38906C13.0975 5.5019 13.0975 5.61474 13.0975 5.72863C13.0975 9.19864 10.4558 13.2006 5.62548 13.2006V13.1985C4.19858 13.2006 2.80132 12.7919 1.6001 12.0212C1.80758 12.0462 2.0161 12.0587 2.22515 12.0592C3.40765 12.0602 4.55634 11.6635 5.48664 10.9329C4.3629 10.9115 3.37749 10.1789 3.03324 9.1092C3.42689 9.18512 3.83249 9.16952 4.21886 9.06396C2.99372 8.81643 2.11231 7.74002 2.11231 6.48992C2.11231 6.47848 2.11231 6.46756 2.11231 6.45664C2.47735 6.65996 2.88608 6.7728 3.30416 6.78528C2.15027 6.01411 1.79458 4.47905 2.49139 3.27887C3.82469 4.91949 5.79188 5.91687 7.90364 6.02243C7.69199 5.11034 7.98112 4.15456 8.66337 3.51339C9.72106 2.51914 11.3846 2.5701 12.3788 3.62727C12.967 3.51131 13.5306 3.29551 14.0465 2.98974C13.8504 3.59763 13.4402 4.114 12.8921 4.44213C13.4126 4.38077 13.9212 4.2414 14.4001 4.02872C14.0475 4.55705 13.6034 5.01726 13.0897 5.38906Z" fill="#FAFAFF"/>
</g>
</svg>
